<svg viewBox="0 0 24 24" fill="none" xmlns="http://www.w3.org/2000/svg">
    <circle cx="12" cy="12" r="12"/>
    <path d="M11.9998 8.07859C12.7455 8.07859 13.3498 8.68287 13.3498 9.42859C13.3498 10.1743 12.7455 10.7786 11.9998 10.7786C11.2541 10.7786 10.6498 10.1743 10.6498 9.42859C10.6498 8.68287 11.2541 8.07859 11.9998 8.07859ZM11.9998 13.8643C13.9091 13.8643 15.9212 14.8029 15.9212 15.2143V15.9214H8.07836V15.2143C8.07836 14.8029 10.0905 13.8643 11.9998 13.8643ZM11.9998 6.85716C10.5791 6.85716 9.42836 8.00787 9.42836 9.42859C9.42836 10.8493 10.5791 12 11.9998 12C13.4205 12 14.5712 10.8493 14.5712 9.42859C14.5712 8.00787 13.4205 6.85716 11.9998 6.85716ZM11.9998 12.6429C10.2834 12.6429 6.85693 13.5043 6.85693 15.2143V17.1429H17.1426V15.2143C17.1426 13.5043 13.7162 12.6429 11.9998 12.6429Z"/>
</svg>
