<svg viewBox="0 0 56 56" xmlns="http://www.w3.org/2000/svg">
    <circle cx="28" cy="28" r="28"/>
    <path d="M28 18.85C29.74 18.85 31.15 20.26 31.15 22C31.15 23.74 29.74 25.15 28 25.15C26.26 25.15 24.85 23.74 24.85 22C24.85 20.26 26.26 18.85 28 18.85ZM28 32.35C32.455 32.35 37.15 34.54 37.15 35.5V37.15H18.85V35.5C18.85 34.54 23.545 32.35 28 32.35ZM28 16C24.685 16 22 18.685 22 22C22 25.315 24.685 28 28 28C31.315 28 34 25.315 34 22C34 18.685 31.315 16 28 16ZM28 29.5C23.995 29.5 16 31.51 16 35.5V40H40V35.5C40 31.51 32.005 29.5 28 29.5Z" />
</svg>
