<svg viewBox="0 0 135 28" xmlns="http://www.w3.org/2000/svg">
<path fill-rule="evenodd" clip-rule="evenodd" d="M28 14C28 21.732 21.732 28 14 28C6.26801 28 0 21.732 0 14C0 6.26801 6.26801 0 14 0C21.732 0 28 6.26801 28 14ZM22.4 14C22.4 9.36081 18.6392 5.6 14 5.6C9.36081 5.6 5.6 9.36081 5.6 14C5.6 18.6392 9.36081 22.4 14 22.4C15.6571 22.4 17.2021 21.9202 18.5037 21.0919L22.4478 22.4065L21.128 18.4464C21.9341 17.1569 22.4 15.6329 22.4 14ZM41.1212 19.6632C41.875 19.6632 42.5566 19.5468 43.1659 19.314L44.2217 20.7654H45.8235L44.3069 18.6806C44.9092 18.2244 45.3883 17.6294 45.7442 16.8957C46.1724 16.0129 46.3865 14.9661 46.3865 13.7555V13.7397C46.3865 12.5291 46.1724 11.4837 45.7442 10.6035C45.316 9.7233 44.708 9.04267 43.9204 8.5616C43.1327 8.08054 42.1996 7.84 41.1212 7.84C40.0427 7.84 39.1084 8.08054 38.318 8.5616C37.5277 9.04267 36.9171 9.7233 36.4863 10.6035C36.0554 11.4837 35.84 12.5291 35.84 13.7397V13.7555C35.84 14.9661 36.0541 16.0129 36.4823 16.8957C36.9105 17.7785 37.5198 18.4605 38.3101 18.9416C39.1004 19.4226 40.0374 19.6632 41.1212 19.6632ZM41.1212 18.3468C41.56 18.3468 41.9644 18.2882 42.3343 18.1708L40.8991 16.1979H42.5009L43.4739 17.5355C43.8855 17.1835 44.2141 16.7323 44.4596 16.182C44.7662 15.4948 44.9195 14.686 44.9195 13.7555V13.7397C44.9195 12.804 44.7649 11.9925 44.4556 11.3053C44.1463 10.618 43.7076 10.0881 43.1393 9.71537C42.571 9.34268 41.8983 9.15633 41.1212 9.15633C40.3441 9.15633 39.67 9.34268 39.0991 9.71537C38.5282 10.0881 38.0867 10.6167 37.7748 11.3013C37.4629 11.9859 37.307 12.7987 37.307 13.7397V13.7555C37.307 14.6913 37.4616 15.5027 37.7709 16.19C38.0801 16.8772 38.5202 17.4085 39.0912 17.7838C39.6621 18.1592 40.3388 18.3468 41.1212 18.3468ZM48.2103 15.4763H53.2853V14.1917H48.2103V15.4763ZM56.8854 19.4729H55.5532V8.03031H57.2026L61.1674 17.6728H61.215L65.1798 8.03031H66.8292V19.4729H65.497V10.6312H65.449L61.7939 19.4729H60.5885L56.9334 10.6312H56.8854V19.4729ZM73.8152 19.6632C74.7615 19.6632 75.573 19.4861 76.2497 19.1319C76.9263 18.7777 77.4457 18.2847 77.8078 17.653C78.17 17.0213 78.351 16.2904 78.351 15.4604V8.03031H76.9237V15.3653C76.9237 15.9521 76.8021 16.4688 76.5589 16.9155C76.3157 17.3622 75.9629 17.7125 75.5003 17.9662C75.0377 18.22 74.4761 18.3468 73.8152 18.3468C73.1544 18.3468 72.5914 18.22 72.1262 17.9662C71.661 17.7125 71.3055 17.3622 71.0597 16.9155C70.8139 16.4688 70.6909 15.9521 70.6909 15.3653V8.03031H69.2636V15.4604C69.2636 16.2904 69.446 17.0213 69.8108 17.653C70.1755 18.2847 70.6976 18.7777 71.3769 19.1319C72.0562 19.4861 72.869 19.6632 73.8152 19.6632ZM82.197 19.4729H80.7855V8.03031H82.1732L88.4669 17.0622H88.509V8.03031H89.9205V19.4729H88.5328L82.239 10.4409H82.197V19.4729ZM92.3549 19.4729H93.7822V8.03031H92.3549V19.4729ZM103.171 19.2191C102.521 19.5151 101.796 19.6632 100.998 19.6632C99.9409 19.6632 99.0198 19.42 98.2347 18.9336C97.4497 18.4473 96.8431 17.7614 96.4149 16.8759C95.9866 15.9904 95.7726 14.9476 95.7726 13.7476V13.7397C95.7726 12.5397 95.9866 11.4982 96.4149 10.6154C96.8431 9.73255 97.4484 9.04928 98.2308 8.56557C99.0132 8.08186 99.9356 7.84 100.998 7.84C101.791 7.84 102.513 7.99066 103.163 8.29199C103.813 8.59332 104.356 9.01359 104.793 9.55281C105.229 10.092 105.518 10.7238 105.661 11.448L105.677 11.5273H104.234L104.178 11.3529C104.03 10.8876 103.809 10.4925 103.516 10.1674C103.222 9.84225 102.864 9.59246 102.441 9.41801C102.019 9.24356 101.537 9.15633 100.998 9.15633C100.237 9.15633 99.5748 9.34532 99.0118 9.7233C98.4488 10.1013 98.0127 10.6326 97.7034 11.3172C97.3942 12.0018 97.2395 12.8093 97.2395 13.7397V13.7476C97.2395 14.6727 97.3942 15.4803 97.7034 16.1701C98.0127 16.86 98.4501 17.3953 99.0158 17.7759C99.5814 18.1565 100.242 18.3468 100.998 18.3468C101.532 18.3468 102.009 18.2596 102.43 18.0852C102.85 17.9107 103.211 17.653 103.512 17.312C103.813 16.971 104.046 16.5494 104.21 16.0472L104.234 15.9759H105.677L105.661 16.0552C105.518 16.7847 105.23 17.4204 104.797 17.9622C104.363 18.5041 103.821 18.9231 103.171 19.2191ZM106.66 19.4729H108.159L109.32 16.1979H113.923L115.081 19.4729H116.58L112.33 8.03031H111.973H111.64H110.918L106.66 19.4729ZM113.494 14.9846H109.75L111.608 9.74312H111.64L113.494 14.9846ZM122.424 19.4729H120.997V9.31492H117.389V8.03031H126.032V9.31492H122.424V19.4729ZM127.753 19.4729H134.842V18.1882H129.18V14.2551H134.549V12.9864H129.18V9.31492H134.842V8.03031H127.753V19.4729Z" />
</svg>
