<?xml version="1.0" encoding="UTF-8" standalone="no"?>
<svg width="25px" height="14px" viewBox="0 0 25 14" version="1.1" xmlns="http://www.w3.org/2000/svg" xmlns:xlink="http://www.w3.org/1999/xlink" xmlns:sketch="http://www.bohemiancoding.com/sketch/ns">
    <!-- Generator: Sketch 3.2.2 (9983) - http://www.bohemiancoding.com/sketch -->
    <title>icon-video-ended</title>
    <desc>Created with Sketch.</desc>
    <defs></defs>
    <g id="Page-1" stroke="none" stroke-width="1" fill="none" fill-rule="evenodd" sketch:type="MSPage">
        <g id="-icons" sketch:type="MSArtboardGroup" transform="translate(-290.000000, -460.000000)" fill="#DBDBDB">
            <g id="icon-video-ended" sketch:type="MSLayerGroup" transform="translate(290.000000, 460.000000)">
                <path d="M25,12.542 L18,9.559 L18,5.177 L25,2.196 L25,12.542" id="Fill-29" sketch:type="MSShapeGroup"></path>
                <path d="M13.807,0 L3.193,0 C1.43,0 0,1.43 0,3.193 L0,10.807 C0,12.57 1.43,14 3.193,14 L13.807,14 C15.57,14 17,12.57 17,10.807 L17,3.193 C17,1.43 15.57,0 13.807,0 L13.807,0 Z M11.685,11.5 L8.715,8.529 L5.744,11.501 L4.43,10.186 L7.4,7.215 L4.429,4.244 L5.744,2.93 L8.715,5.9 L11.686,2.929 L13,4.245 L10.029,7.215 L13,10.186 L11.685,11.5 L11.685,11.5 Z" id="Fill-30" sketch:type="MSShapeGroup"></path>
            </g>
        </g>
    </g>
</svg>