<?xml version="1.0" encoding="UTF-8" standalone="no"?>
<svg width="29px" height="21px" viewBox="0 0 29 21" version="1.1" xmlns="http://www.w3.org/2000/svg" xmlns:xlink="http://www.w3.org/1999/xlink" xmlns:sketch="http://www.bohemiancoding.com/sketch/ns">
    <!-- Generator: Sketch 3.2.2 (9983) - http://www.bohemiancoding.com/sketch -->
    <title>icon-camera-off</title>
    <desc>Created with Sketch.</desc>
    <defs></defs>
    <g id="Page-1" stroke="none" stroke-width="1" fill="none" fill-rule="evenodd" sketch:type="MSPage">
        <g id="-icons" sketch:type="MSArtboardGroup" transform="translate(-1017.000000, -459.000000)" fill="#FFFFFF" opacity="0.5">
            <g id="icon-camera-off" sketch:type="MSLayerGroup" transform="translate(1017.000000, 459.000000)">
                <path d="M28.526,5.466 L21.212,8.508 L21.212,12.98 L28.526,16.023 L28.526,5.466 Z M13.543,3.658 L6.183,3.658 C4.384,3.658 2.925,5.116 2.925,6.915 L2.925,12.851 L13.543,3.658 Z M21.427,0 L0,18.555 L1.756,20.582 L5.372,17.449 C5.632,17.517 5.903,17.554 6.183,17.554 L16.491,17.554 C18.291,17.554 19.749,16.096 19.749,14.296 L19.749,6.915 C19.749,6.346 19.599,5.816 19.341,5.353 L23.182,2.026 L21.427,0 Z" id="Fill-50" sketch:type="MSShapeGroup"></path>
            </g>
        </g>
    </g>
</svg>