<?xml version="1.0" encoding="UTF-8" standalone="no"?>
<svg width="26px" height="30px" viewBox="0 0 26 30" version="1.1" xmlns="http://www.w3.org/2000/svg" xmlns:xlink="http://www.w3.org/1999/xlink" xmlns:sketch="http://www.bohemiancoding.com/sketch/ns">
    <!-- Generator: Sketch 3.2.2 (9983) - http://www.bohemiancoding.com/sketch -->
    <title>icon-android</title>
    <desc>Created with Sketch.</desc>
    <defs></defs>
    <g id="Page-1" stroke="none" stroke-width="1" fill="none" fill-rule="evenodd" sketch:type="MSPage">
        <g id="-icons" sketch:type="MSArtboardGroup" transform="translate(-1298.000000, -454.000000)" fill="#CCCCCC">
            <g id="icon-android" sketch:type="MSLayerGroup" transform="translate(1298.000000, 454.000000)">
                <g id="Fill-15" sketch:type="MSShapeGroup">
                    <path d="M17.432,2.195 L18.829,0.229 L18.736,0.053 L18.538,0.024 L17.097,2.051 C16.123,1.671 14.939,1.435 13.497,1.43 C12.047,1.426 10.858,1.655 9.881,2.03 L8.455,0.024 L8.258,0.053 L8.165,0.229 L9.544,2.171 C5.522,3.943 5.404,8.292 5.404,8.292 L21.59,8.292 C21.59,8.292 21.425,3.981 17.432,2.195 L17.432,2.195 Z M9.944,5.748 C9.407,5.748 8.97,5.313 8.97,4.777 C8.97,4.24 9.407,3.806 9.944,3.806 C10.482,3.806 10.919,4.24 10.919,4.777 C10.919,5.313 10.482,5.748 9.944,5.748 L9.944,5.748 Z M17.05,5.748 C16.511,5.748 16.075,5.313 16.075,4.777 C16.075,4.24 16.511,3.806 17.05,3.806 C17.587,3.806 18.023,4.24 18.023,4.777 C18.023,5.313 17.587,5.748 17.05,5.748 L17.05,5.748 Z M5.336,15.947 L5.351,15.947 L5.351,22.972 C5.351,23.509 5.788,23.944 6.327,23.944 L8.411,23.944 L8.411,28.267 C8.411,29.222 9.189,29.997 10.148,29.997 C11.106,29.997 11.883,29.222 11.883,28.267 L11.883,23.944 L15.111,23.944 L15.111,28.267 C15.111,29.222 15.887,29.997 16.847,29.997 C17.805,29.997 18.583,29.222 18.583,28.267 L18.583,23.944 L20.667,23.944 C21.206,23.944 21.643,23.509 21.643,22.972 L21.643,15.947 L21.658,15.947 L21.658,9.25 L5.336,9.25 L5.336,15.947 L5.336,15.947 Z M24.264,8.696 C23.305,8.696 22.528,9.471 22.528,10.427 L22.528,18.203 C22.528,19.158 23.305,19.934 24.264,19.934 C25.222,19.934 26,19.158 26,18.203 L26,10.427 C26,9.471 25.222,8.696 24.264,8.696 L24.264,8.696 Z M2.73,8.696 C1.772,8.696 0.994,9.471 0.994,10.427 L0.994,18.203 C0.994,19.158 1.772,19.934 2.73,19.934 C3.689,19.934 4.466,19.158 4.466,18.203 L4.466,10.427 C4.466,9.471 3.689,8.696 2.73,8.696 L2.73,8.696 Z"></path>
                </g>
            </g>
        </g>
    </g>
</svg>