<?xml version="1.0" encoding="UTF-8" standalone="no"?>
<svg width="20px" height="19px" viewBox="0 0 20 19" version="1.1" xmlns="http://www.w3.org/2000/svg" xmlns:xlink="http://www.w3.org/1999/xlink" xmlns:sketch="http://www.bohemiancoding.com/sketch/ns">
    <!-- Generator: Sketch 3.2.2 (9983) - http://www.bohemiancoding.com/sketch -->
    <title>icon-audio-incoming</title>
    <desc>Created with Sketch.</desc>
    <defs></defs>
    <g id="Page-1" stroke="none" stroke-width="1" fill="none" fill-rule="evenodd" sketch:type="MSPage">
        <g id="-icons" sketch:type="MSArtboardGroup" transform="translate(-1180.000000, -480.000000)">
            <g id="icon-audio-incoming" sketch:type="MSLayerGroup" transform="translate(1180.000000, 480.000000)">
                <path d="M13,0 L13,6 L19,6 L13,0" id="Fill-19" fill="#A3CAE3" sketch:type="MSShapeGroup"></path>
                <path d="M8.722,10.959 C6.842,9.079 5.045,6.901 5.905,6.04 C7.138,4.809 8.211,4.049 6.028,1.332 C3.844,-1.384 2.389,0.702 1.195,1.896 C-0.183,3.273 1.122,8.408 6.197,13.484 C11.272,18.559 16.408,19.864 17.786,18.486 C18.98,17.292 21.065,15.837 18.349,13.654 C15.633,11.471 14.874,12.543 13.641,13.776 C12.78,14.636 10.603,12.839 8.722,10.959" id="Fill-31" fill="#DBDBDB" sketch:type="MSShapeGroup"></path>
            </g>
        </g>
    </g>
</svg>