<?xml version="1.0" encoding="UTF-8" standalone="no"?>
<svg width="19px" height="19px" viewBox="0 0 19 19" version="1.1" xmlns="http://www.w3.org/2000/svg" xmlns:xlink="http://www.w3.org/1999/xlink" xmlns:sketch="http://www.bohemiancoding.com/sketch/ns">
    <!-- Generator: Sketch 3.2.2 (9983) - http://www.bohemiancoding.com/sketch -->
    <title>icon-audio-ended</title>
    <desc>Created with Sketch.</desc>
    <defs></defs>
    <g id="Page-1" stroke="none" stroke-width="1" fill="none" fill-rule="evenodd" sketch:type="MSPage">
        <g id="-icons" sketch:type="MSArtboardGroup" transform="translate(-1221.000000, -476.000000)" fill="#DBDBDB">
            <g id="icon-audio-ended" sketch:type="MSLayerGroup" transform="translate(1220.000000, 476.000000)">
                <path d="M9.041,10.959 C7.161,9.079 5.364,6.902 6.224,6.041 C7.456,4.809 8.53,4.049 6.346,1.332 C4.162,-1.384 2.707,0.702 1.513,1.896 C0.136,3.274 1.441,8.408 6.515,13.484 C11.591,18.559 16.726,19.864 18.104,18.486 C19.299,17.292 21.384,15.837 18.667,13.654 C15.951,11.471 15.192,12.543 13.959,13.776 C13.098,14.636 10.922,12.839 9.041,10.959" id="Fill-34" sketch:type="MSShapeGroup"></path>
                <path d="M17.881,7.571 L15.604,5.294 L13.326,7.571 L12.319,6.564 L14.596,4.286 L12.318,2.008 L13.326,1.001 L15.604,3.278 L17.882,1 L18.889,2.009 L16.612,4.286 L18.89,6.564 L17.881,7.571" id="Fill-37" sketch:type="MSShapeGroup"></path>
            </g>
        </g>
    </g>
</svg>