<?xml version="1.0" encoding="UTF-8" standalone="no"?>
<svg width="19px" height="19px" viewBox="0 0 19 19" version="1.1" xmlns="http://www.w3.org/2000/svg" xmlns:xlink="http://www.w3.org/1999/xlink" xmlns:sketch="http://www.bohemiancoding.com/sketch/ns">
    <!-- Generator: Sketch 3.2.2 (9983) - http://www.bohemiancoding.com/sketch -->
    <title>icon-request_active</title>
    <desc>Created with Sketch.</desc>
    <defs></defs>
    <g id="Page-1" stroke="none" stroke-width="1" fill="none" fill-rule="evenodd" sketch:type="MSPage">
        <g id="-icons" sketch:type="MSArtboardGroup" transform="translate(-513.000000, -451.000000)" fill="#1DC250">
            <g id="icon-request_active" sketch:type="MSLayerGroup" transform="translate(513.000000, 451.000000)">
                <path d="M7.859,14.228 C7.859,11.485 9.56,9.144 11.963,8.19 C12.49,7.406 12.799,6.464 12.799,5.449 C12.799,2.728 10.591,0.519 7.87,0.519 C5.148,0.519 2.941,2.724 2.941,5.446 C2.941,7.092 3.75,8.552 4.99,9.447 C2.668,10.514 0.864,12.839 0.141,15.728 L8.039,15.728 C7.926,15.245 7.859,14.745 7.859,14.228" id="Fill-41" sketch:type="MSShapeGroup"></path>
                <path d="M14.359,9.728 C11.873,9.728 9.859,11.742 9.859,14.228 C9.859,16.713 11.873,18.728 14.359,18.728 C16.844,18.728 18.859,16.713 18.859,14.228 C18.859,11.742 16.844,9.728 14.359,9.728 L14.359,9.728 Z M16.859,14.728 L14.859,14.728 L14.859,16.728 L13.859,16.728 L13.859,14.728 L11.859,14.728 L11.859,13.728 L13.859,13.728 L13.859,11.728 L14.859,11.728 L14.859,13.728 L16.859,13.728 L16.859,14.728 L16.859,14.728 Z" id="Fill-42" sketch:type="MSShapeGroup"></path>
            </g>
        </g>
    </g>
</svg>