<?xml version="1.0" encoding="UTF-8" standalone="no"?>
<svg width="32px" height="33px" viewBox="0 0 32 33" version="1.1" xmlns="http://www.w3.org/2000/svg" xmlns:xlink="http://www.w3.org/1999/xlink" xmlns:sketch="http://www.bohemiancoding.com/sketch/ns">
    <!-- Generator: Sketch 3.2.2 (9983) - http://www.bohemiancoding.com/sketch -->
    <title>icon-smile</title>
    <desc>Created with Sketch.</desc>
    <defs></defs>
    <g id="Page-1" stroke="none" stroke-width="1" fill="none" fill-rule="evenodd" sketch:type="MSPage">
        <g id="-icons" sketch:type="MSArtboardGroup" transform="translate(-330.000000, -450.000000)" fill="#BEBEBE">
            <g id="icon-smile" sketch:type="MSLayerGroup" transform="translate(330.000000, 450.000000)">
                <path d="M16,0.917 C7.371,0.917 0.376,7.913 0.376,16.542 C0.376,25.17 7.371,32.166 16,32.166 C24.629,32.166 31.624,25.17 31.624,16.542 C31.624,7.913 24.629,0.917 16,0.917 L16,0.917 Z M22.343,8.598 C23.515,8.598 24.465,9.548 24.465,10.72 C24.465,11.892 23.515,12.842 22.343,12.842 C21.171,12.842 20.221,11.892 20.221,10.72 C20.221,9.548 21.171,8.598 22.343,8.598 L22.343,8.598 Z M9.437,8.598 C10.608,8.598 11.558,9.548 11.558,10.72 C11.558,11.892 10.608,12.842 9.437,12.842 C8.265,12.842 7.315,11.892 7.315,10.72 C7.315,9.548 8.265,8.598 9.437,8.598 L9.437,8.598 Z M16,26.565 C11.135,26.565 7.006,23.46 5.458,19.127 C7.984,21.573 11.766,23.131 16,23.131 C20.234,23.131 24.016,21.573 26.542,19.127 C24.994,23.46 20.865,26.565 16,26.565 L16,26.565 Z" id="Fill-16" sketch:type="MSShapeGroup"></path>
            </g>
        </g>
    </g>
</svg>