<?xml version="1.0" encoding="utf-8"?>
<!-- Generator: Adobe Illustrator 17.0.2, SVG Export Plug-In . SVG Version: 6.00 Build 0)  -->
<!DOCTYPE svg PUBLIC "-//W3C//DTD SVG 1.1//EN" "http://www.w3.org/Graphics/SVG/1.1/DTD/svg11.dtd">
<svg version="1.1" id="Layer_1" xmlns:sketch="http://www.bohemiancoding.com/sketch/ns"
	 xmlns="http://www.w3.org/2000/svg" xmlns:xlink="http://www.w3.org/1999/xlink" x="0px" y="0px" width="55px" height="55px"
	 viewBox="0 0 55 55" enable-background="new 0 0 55 55" xml:space="preserve">
<title>logo-qmunicate-transparent</title>
<desc>Created with Sketch.</desc>
<g id="Page-1" sketch:type="MSPage" opacity="0.2">
	<g id="_x2D_icons" transform="translate(-33.000000, -456.000000)" sketch:type="MSArtboardGroup">
		<g id="logo-qmunicate-transparent" transform="translate(33.000000, 456.000000)" sketch:type="MSLayerGroup">
			<path id="Fill-38" sketch:type="MSShapeGroup" fill="#FFFFFF" d="M17.543,41.203c-2.475,0-4.49-2.014-4.49-4.49v-19.82
				c0-2.477,2.015-4.493,4.49-4.493h19.826c2.475,0,4.487,2.016,4.487,4.493v31.914l-10.503-7.604H17.543 M35.75,0H19.249
				c-5.472,0-8.208,0-11.154,0.931c-3.216,1.171-5.749,3.704-6.919,6.92c-0.931,2.945-0.931,5.681-0.931,11.153v16.502
				c0,5.473,0,8.209,0.931,11.154c1.17,3.216,3.703,5.749,6.919,6.92c2.946,0.931,5.682,0.931,11.154,0.931H35.75
				c5.473,0,8.209,0,11.155-0.931c3.215-1.171,5.749-3.704,6.919-6.92c0.931-2.945,0.931-5.681,0.931-11.154V19.004
				c0-5.472,0-8.208-0.931-11.153c-1.17-3.216-3.704-5.749-6.919-6.92C43.959,0,41.223,0,35.75,0"/>
		</g>
	</g>
</g>
</svg>
