<?xml version="1.0" encoding="UTF-8" standalone="no"?>
<svg width="226px" height="49px" viewBox="0 0 226 49" version="1.1" xmlns="http://www.w3.org/2000/svg" xmlns:xlink="http://www.w3.org/1999/xlink" xmlns:sketch="http://www.bohemiancoding.com/sketch/ns">
    <!-- Generator: Sketch 3.2.2 (9983) - http://www.bohemiancoding.com/sketch -->
    <title>logo-qmunicate</title>
    <desc>Created with Sketch.</desc>
    <defs></defs>
    <g id="Page-1" stroke="none" stroke-width="1" fill="none" fill-rule="evenodd" sketch:type="MSPage">
        <g id="-icons" sketch:type="MSArtboardGroup" transform="translate(-925.000000, -332.000000)">
            <g id="logo-qmunicate" sketch:type="MSLayerGroup" transform="translate(925.000000, 332.000000)">
                <path d="M47.696,7.709 C46.665,4.877 44.435,2.647 41.603,1.616 C39.009,0.796 36.6,0.796 31.781,0.796 L17.251,0.796 C12.432,0.796 10.023,0.796 7.429,1.616 C4.597,2.647 2.367,4.877 1.336,7.709 C0.516,10.303 0.516,12.712 0.516,17.531 L0.516,32.061 C0.516,36.88 0.516,39.289 1.336,41.883 C2.367,44.714 4.597,46.945 7.429,47.976 C10.023,48.796 12.432,48.796 17.251,48.796 L31.781,48.796 C36.6,48.796 39.009,48.796 41.603,47.976 C44.435,46.945 46.665,44.714 47.696,41.883 C48.516,39.289 48.516,36.88 48.516,32.061 L48.516,17.531 C48.516,12.712 48.516,10.303 47.696,7.709 Z M37.158,43.773 L27.909,37.078 L15.749,37.078 C13.569,37.078 11.795,35.304 11.795,33.124 L11.795,15.671 C11.795,13.489 13.569,11.715 15.749,11.715 L33.207,11.715 C35.386,11.715 37.158,13.489 37.158,15.671 L37.158,43.773 Z" id="Fill-1" fill="#00BF28" sketch:type="MSShapeGroup"></path>
                <path d="M77.279,30.447 C76.099,31.388 74.598,31.948 72.858,31.948 C68.597,31.948 65.736,28.607 65.736,24.706 C65.736,20.845 68.637,17.464 72.898,17.464 C77.159,17.464 80.019,20.805 80.019,24.706 C80.019,26.466 79.419,28.127 78.339,29.407 L80.199,30.947 L79.119,32.127 L77.279,30.447 L77.279,30.447 Z M76.119,29.427 L73.518,27.206 L74.578,26.026 L77.159,28.367 C77.919,27.387 78.379,26.127 78.379,24.706 C78.379,21.525 76.059,18.925 72.858,18.925 C69.657,18.925 67.376,21.485 67.376,24.706 C67.376,27.887 69.697,30.487 72.898,30.487 C74.138,30.487 75.258,30.087 76.119,29.427 Z M85.99,23.986 L91.551,23.986 L91.551,25.606 L85.99,25.606 L85.99,23.986 Z M98.032,17.794 L99.632,17.794 L104.733,25.436 L109.834,17.794 L111.435,17.794 L111.435,31.797 L109.854,31.797 L109.854,20.455 L104.753,27.956 L104.674,27.956 L99.572,20.475 L99.572,31.797 L98.032,31.797 L98.032,17.794 Z M118.392,25.826 L118.392,17.684 L119.972,17.684 L119.972,25.726 C119.972,28.747 121.572,30.447 124.253,30.447 C126.833,30.447 128.474,28.886 128.474,25.826 L128.474,17.684 L130.054,17.684 L130.054,25.706 C130.054,29.787 127.714,31.907 124.213,31.907 C120.752,31.907 118.392,29.787 118.392,25.826 Z M136.999,17.794 L138.48,17.794 L147.302,29.017 L147.302,17.794 L148.842,17.794 L148.842,31.797 L147.581,31.797 L138.54,20.315 L138.54,31.797 L136.999,31.797 L136.999,17.794 Z M156.01,17.794 L157.59,17.794 L157.59,31.797 L156.01,31.797 L156.01,17.794 Z M164.053,24.796 C164.053,20.835 167.014,17.554 171.135,17.554 C173.675,17.554 175.156,18.495 176.556,19.815 L175.516,20.935 C174.335,19.815 173.015,19.015 171.115,19.015 C168.014,19.015 165.693,21.535 165.693,24.796 C165.693,28.037 168.034,30.577 171.115,30.577 C173.035,30.577 174.295,29.837 175.636,28.557 L176.676,29.657 C175.215,31.137 173.615,32.038 171.075,32.038 C167.034,32.038 164.053,28.857 164.053,24.796 Z M187.72,17.744 L189.2,17.744 L195.582,31.847 L193.881,31.847 L192.241,28.147 L184.62,28.147 L182.959,31.847 L181.339,31.847 L187.72,17.744 Z M191.621,26.726 L188.44,19.585 L185.24,26.726 L191.621,26.726 Z M203.058,19.255 L198.356,19.255 L198.356,17.794 L209.359,17.794 L209.359,19.255 L204.658,19.255 L204.658,31.797 L203.058,31.797 L203.058,19.255 Z M215.119,17.794 L225.241,17.794 L225.241,19.235 L216.699,19.235 L216.699,24.016 L224.341,24.016 L224.341,25.456 L216.699,25.456 L216.699,30.357 L225.341,30.357 L225.341,31.797 L215.119,31.797 L215.119,17.794 Z" id="Fill-2" fill="#666666" sketch:type="MSShapeGroup"></path>
            </g>
        </g>
    </g>
</svg>