<?xml version="1.0" encoding="UTF-8" standalone="no"?>
<svg width="129px" height="26px" viewBox="0 0 129 26" version="1.1" xmlns="http://www.w3.org/2000/svg" xmlns:xlink="http://www.w3.org/1999/xlink" xmlns:sketch="http://www.bohemiancoding.com/sketch/ns">
    <!-- Generator: Sketch 3.2.2 (9983) - http://www.bohemiancoding.com/sketch -->
    <title>logo-quickblox-gray</title>
    <desc>Created with Sketch.</desc>
    <defs></defs>
    <g id="Page-1" stroke="none" stroke-width="1" fill="none" fill-rule="evenodd" sketch:type="MSPage">
        <g id="-icons" sketch:type="MSArtboardGroup" transform="translate(-1254.000000, -365.000000)" fill="#C6C6C6">
            <g id="logo-quickblox-gray" sketch:type="MSLayerGroup" transform="translate(1254.000000, 365.000000)">
                <path d="M37.081,8.124 L37.081,1.91 L38.639,1.91 C39.835,1.884 41.178,2.186 41.178,3.666 C41.178,5.146 39.835,5.447 38.639,5.422 L37.641,5.422 L37.641,8.124 L37.081,8.124 L37.081,8.124 Z M37.641,4.905 L39,4.905 C39.835,4.905 40.575,4.638 40.575,3.666 C40.575,2.694 39.835,2.426 39,2.426 L37.641,2.426 L37.641,4.905 L37.641,4.905 Z" id="Fill-1" sketch:type="MSShapeGroup"></path>
                <path d="M47.634,8.253 C45.853,8.253 44.863,6.953 44.863,5.017 C44.863,3.081 45.853,1.781 47.634,1.781 C49.415,1.781 50.406,3.081 50.406,5.017 C50.406,6.953 49.415,8.253 47.634,8.253 L47.634,8.253 Z M47.634,7.736 C49.183,7.736 49.803,6.377 49.803,5.017 C49.803,3.657 49.183,2.298 47.634,2.298 C46.085,2.298 45.465,3.657 45.465,5.017 C45.465,6.377 46.085,7.736 47.634,7.736 L47.634,7.736 Z" id="Fill-2" sketch:type="MSShapeGroup"></path>
                <path d="M56.162,8.124 L55.37,8.124 L53.752,1.91 L54.346,1.91 L55.792,7.564 L55.809,7.564 L57.625,1.91 L58.305,1.91 L60.199,7.564 L60.215,7.564 L61.653,1.91 L62.195,1.91 L60.56,8.124 L59.794,8.124 L57.96,2.487 L57.944,2.487 L56.162,8.124" id="Fill-3" sketch:type="MSShapeGroup"></path>
                <path d="M65.976,8.124 L65.976,1.91 L69.667,1.91 L69.667,2.426 L66.535,2.426 L66.535,4.655 L69.547,4.655 L69.547,5.172 L66.535,5.172 L66.535,7.608 L69.797,7.608 L69.797,8.124 L65.976,8.124" id="Fill-4" sketch:type="MSShapeGroup"></path>
                <path d="M74.378,8.124 L73.82,8.124 L73.82,1.91 L75.85,1.91 C76.393,1.91 76.84,1.944 77.314,2.237 C77.743,2.495 77.95,2.943 77.95,3.537 C77.95,4.208 77.477,4.69 76.754,4.871 L76.754,4.888 C77.546,5.017 77.718,5.551 77.795,6.274 C77.908,7.28 77.872,7.745 78.122,8.124 L77.477,8.124 C77.33,7.711 77.296,7.272 77.262,6.833 C77.132,5.413 77.046,5.163 75.919,5.163 L74.378,5.163 L74.378,8.124 L74.378,8.124 Z M75.574,4.647 C76.367,4.647 77.348,4.595 77.348,3.537 C77.348,2.34 76.229,2.426 75.635,2.426 L74.378,2.426 L74.378,4.647 L75.574,4.647 L75.574,4.647 Z" id="Fill-5" sketch:type="MSShapeGroup"></path>
                <path d="M82.251,8.124 L82.251,1.91 L85.943,1.91 L85.943,2.426 L82.811,2.426 L82.811,4.655 L85.823,4.655 L85.823,5.172 L82.811,5.172 L82.811,7.608 L86.073,7.608 L86.073,8.124 L82.251,8.124" id="Fill-6" sketch:type="MSShapeGroup"></path>
                <path d="M91.721,1.91 C93.761,1.91 94.923,2.96 94.923,5.017 C94.923,7.074 93.761,8.124 91.721,8.124 L90.043,8.124 L90.043,1.91 L91.721,1.91 L91.721,1.91 Z M91.859,7.608 C93.606,7.608 94.321,6.583 94.321,5.017 C94.321,3.184 93.244,2.375 91.481,2.426 L90.603,2.426 L90.603,7.608 L91.859,7.608 L91.859,7.608 Z" id="Fill-7" sketch:type="MSShapeGroup"></path>
                <path d="M37.081,21.416 L37.081,15.203 L39.311,15.211 C40.232,15.211 41.04,15.771 41.04,16.76 C41.04,17.449 40.541,18.008 39.887,18.163 L39.887,18.18 C40.731,18.318 41.298,18.869 41.298,19.755 C41.298,20.573 40.799,21.416 39.448,21.416 L37.081,21.416 L37.081,21.416 Z M38.993,17.94 C39.715,17.94 40.438,17.656 40.438,16.812 C40.438,15.908 39.697,15.728 38.966,15.719 L37.641,15.719 L37.641,17.94 L38.993,17.94 L38.993,17.94 Z M37.641,20.9 L39.009,20.9 C40.076,20.917 40.697,20.633 40.697,19.678 C40.697,18.619 39.844,18.456 38.674,18.456 L37.641,18.456 L37.641,20.9 L37.641,20.9 Z" id="Fill-8" sketch:type="MSShapeGroup"></path>
                <path d="M46.834,18.731 L44.544,15.203 L45.259,15.203 L47.161,18.206 L49.063,15.203 L49.665,15.203 L47.393,18.714 L47.393,21.416 L46.834,21.416 L46.834,18.731" id="Fill-9" sketch:type="MSShapeGroup"></path>
                <path d="M62.368,21.416 C62.102,21.416 61.603,21.33 61.267,21.425 C61.052,21.494 60.811,21.545 60.63,21.545 C58.849,21.545 57.859,20.246 57.859,18.309 C57.859,16.373 58.849,15.073 60.63,15.073 C62.411,15.073 63.402,16.373 63.402,18.309 C63.402,19.317 63.048,20.349 62.265,20.943 L62.282,20.96 C62.713,20.891 63.178,20.917 63.634,20.9 L63.634,21.416 L62.368,21.416 L62.368,21.416 Z M60.63,21.029 C62.179,21.029 62.799,19.669 62.799,18.309 C62.799,16.95 62.179,15.59 60.63,15.59 C59.081,15.59 58.461,16.95 58.461,18.309 C58.461,19.669 59.081,21.029 60.63,21.029 L60.63,21.029 Z" id="Fill-10" sketch:type="MSShapeGroup"></path>
                <path d="M68.086,15.203 L68.086,19.222 C68.129,20.349 68.775,21.029 69.798,21.029 C70.823,21.029 71.468,20.349 71.511,19.222 L71.511,15.203 L72.071,15.203 L72.071,19.23 C72.053,20.564 71.304,21.545 69.798,21.545 C68.292,21.545 67.543,20.564 67.527,19.23 L67.527,15.203 L68.086,15.203" id="Fill-11" sketch:type="MSShapeGroup"></path>
                <path d="M76.51,15.177 L77.07,15.177 L77.07,21.416 L76.51,21.416 L76.51,15.177 Z" id="Fill-12" sketch:type="MSShapeGroup"></path>
                <path d="M85.368,16.657 C85.266,15.9 84.612,15.59 83.906,15.59 C82.314,15.59 81.831,17.036 81.831,18.309 C81.831,19.583 82.314,21.029 83.906,21.029 C84.594,21.029 85.283,20.685 85.438,19.91 L86.04,19.91 C85.86,20.951 84.904,21.545 83.906,21.545 C82.021,21.545 81.23,20.03 81.23,18.309 C81.23,16.606 82.03,15.073 83.906,15.073 C84.921,15.073 85.885,15.538 85.971,16.657 L85.368,16.657" id="Fill-13" sketch:type="MSShapeGroup"></path>
                <path d="M90.04,21.416 L90.04,15.203 L90.591,15.203 L90.6,17.94 L93.379,15.203 L94.085,15.203 L91.219,18.008 L94.343,21.416 L93.577,21.416 L90.6,18.172 L90.591,21.416 L90.04,21.416" id="Fill-14" sketch:type="MSShapeGroup"></path>
                <path d="M98.064,15.203 L100.284,15.203 C101.041,15.203 101.463,15.28 101.851,15.659 C102.117,15.917 102.289,16.278 102.289,16.769 C102.289,17.793 101.54,18.06 101.24,18.172 C101.601,18.275 102.479,18.533 102.479,19.721 C102.479,20.564 101.937,20.994 101.73,21.132 C101.3,21.416 100.818,21.416 100.327,21.416 L98.064,21.416 L98.064,15.203 L98.064,15.203 Z M98.899,17.827 L100.104,17.827 C100.396,17.827 101.395,17.827 101.395,16.846 C101.395,15.908 100.612,15.908 100.138,15.908 L98.899,15.908 L98.899,17.827 L98.899,17.827 Z M98.899,20.719 L100.37,20.719 C101.05,20.719 101.592,20.358 101.592,19.643 C101.592,19.024 101.162,18.568 100.405,18.568 L98.899,18.568 L98.899,20.719 L98.899,20.719 Z" id="Fill-15" sketch:type="MSShapeGroup"></path>
                <path d="M106.479,15.203 L107.33,15.203 L107.33,20.65 L110.222,20.65 L110.222,21.416 L106.479,21.416 L106.479,15.203" id="Fill-16" sketch:type="MSShapeGroup"></path>
                <path d="M114.331,15.874 C114.976,15.177 115.828,15.039 116.405,15.039 C118.126,15.039 119.21,16.141 119.21,18.249 C119.21,19.902 118.548,21.563 116.336,21.563 C114.219,21.563 113.531,20.056 113.531,18.353 C113.531,17.647 113.651,16.606 114.331,15.874 L114.331,15.874 Z M114.985,20.263 C115.338,20.702 115.871,20.831 116.362,20.831 C116.869,20.831 117.377,20.694 117.739,20.263 C118.246,19.643 118.298,18.662 118.298,18.24 C118.298,16.829 117.833,15.762 116.413,15.762 C114.838,15.762 114.434,17.027 114.434,18.301 C114.434,18.981 114.555,19.73 114.985,20.263 L114.985,20.263 Z" id="Fill-17" sketch:type="MSShapeGroup"></path>
                <path d="M123.604,15.203 L125.282,17.595 L126.96,15.203 L128.001,15.203 L125.789,18.18 L128.113,21.416 L127.029,21.416 L125.179,18.748 L123.285,21.416 L122.244,21.416 L124.654,18.163 L122.502,15.203 L123.604,15.203" id="Fill-18" sketch:type="MSShapeGroup"></path>
                <path d="M5.25,0 L0.687,0 C0.308,0 0,0.307 0,0.685 L0,5.248 C0,5.628 0.308,5.935 0.687,5.935 L5.25,5.935 C5.628,5.935 5.935,5.628 5.935,5.248 L5.935,0.685 C5.935,0.307 5.628,0 5.25,0" id="Fill-19" sketch:type="MSShapeGroup"></path>
                <path d="M13.446,0 L8.883,0 C8.504,0 8.197,0.307 8.197,0.685 L8.197,5.248 C8.197,5.628 8.504,5.935 8.883,5.935 L13.446,5.935 C13.824,5.935 14.132,5.628 14.132,5.248 L14.132,0.685 C14.132,0.307 13.824,0 13.446,0" id="Fill-20" sketch:type="MSShapeGroup"></path>
                <path d="M21.642,0 L17.079,0 C16.7,0 16.393,0.307 16.393,0.685 L16.393,5.248 C16.393,5.628 16.7,5.935 17.079,5.935 L21.642,5.935 C22.021,5.935 22.328,5.628 22.328,5.248 L22.328,0.685 C22.328,0.307 22.021,0 21.642,0" id="Fill-21" sketch:type="MSShapeGroup"></path>
                <path d="M5.25,8.124 L0.687,8.124 C0.308,8.124 0,8.431 0,8.811 L0,13.374 C0,13.752 0.308,14.058 0.687,14.058 L5.25,14.058 C5.628,14.058 5.935,13.752 5.935,13.374 L5.935,8.811 C5.935,8.431 5.628,8.124 5.25,8.124" id="Fill-22" sketch:type="MSShapeGroup"></path>
                <path d="M21.642,8.124 L17.079,8.124 C16.7,8.124 16.393,8.431 16.393,8.811 L16.393,13.374 C16.393,13.752 16.7,14.058 17.079,14.058 L21.642,14.058 C22.021,14.058 22.328,13.752 22.328,13.374 L22.328,8.811 C22.328,8.431 22.021,8.124 21.642,8.124" id="Fill-23" sketch:type="MSShapeGroup"></path>
                <path d="M5.25,16.248 L0.687,16.248 C0.308,16.248 0,16.555 0,16.934 L0,21.497 C0,21.876 0.308,22.183 0.687,22.183 L5.25,22.183 C5.628,22.183 5.935,21.876 5.935,21.497 L5.935,16.934 C5.935,16.555 5.628,16.248 5.25,16.248" id="Fill-24" sketch:type="MSShapeGroup"></path>
                <path d="M13.446,16.248 L8.883,16.248 C8.504,16.248 8.197,16.555 8.197,16.934 L8.197,21.497 C8.197,21.876 8.504,22.183 8.883,22.183 L13.446,22.183 C13.824,22.183 14.132,21.876 14.132,21.497 L14.132,16.934 C14.132,16.555 13.824,16.248 13.446,16.248" id="Fill-25" sketch:type="MSShapeGroup"></path>
                <path d="M24.25,16.249 L17.42,16.249 C16.852,16.249 16.393,16.709 16.393,17.277 L16.393,24.105 C16.393,24.673 16.852,25.132 17.42,25.132 L24.25,25.132 C24.817,25.132 25.276,24.673 25.276,24.105 L25.276,17.277 C25.276,16.709 24.817,16.249 24.25,16.249" id="Fill-26" sketch:type="MSShapeGroup"></path>
            </g>
        </g>
    </g>
</svg>