<?xml version="1.0" encoding="UTF-8" standalone="no"?>
<svg width="17px" height="17px" viewBox="0 0 17 17" version="1.1" xmlns="http://www.w3.org/2000/svg" xmlns:xlink="http://www.w3.org/1999/xlink" xmlns:sketch="http://www.bohemiancoding.com/sketch/ns">
    <!-- Generator: Sketch 3.2.2 (9983) - http://www.bohemiancoding.com/sketch -->
    <title>objects_active</title>
    <desc>Created with Sketch.</desc>
    <defs></defs>
    <g id="Page-1" stroke="none" stroke-width="1" fill="none" fill-rule="evenodd" sketch:type="MSPage">
        <g id="-icons" sketch:type="MSArtboardGroup" transform="translate(-558.000000, -669.000000)" fill="#FFFFFF">
            <g id="objects_active" sketch:type="MSLayerGroup" transform="translate(558.000000, 668.000000)">
                <path d="M12.939,8.044 C10.72,3.338 9.568,1.551 5.943,1.624 C4.651,1.651 4.961,0.703 3.977,1.062 C2.994,1.422 3.838,1.949 2.831,2.762 C0.007,5.047 0.267,7.161 1.577,12.199 C2.129,14.321 0.247,14.425 0.992,16.482 C1.535,17.982 5.544,18.61 9.773,17.063 C14.002,15.516 16.672,12.446 16.128,10.946 C15.383,8.889 13.874,10.025 12.939,8.044 L12.939,8.044 Z M9.314,15.796 C5.537,17.177 2.433,16.364 2.302,16.003 C2.075,15.38 3.521,13.303 7.839,11.723 C12.157,10.144 14.567,10.729 14.819,11.425 C14.968,11.836 13.091,14.414 9.314,15.796 L9.314,15.796 Z M8.1,12.444 C6.125,13.166 4.753,13.993 3.865,14.736 C4.49,15.296 5.661,15.433 6.829,15.006 C8.315,14.462 9.227,13.215 8.866,12.22 C8.862,12.207 8.855,12.197 8.851,12.185 C8.607,12.264 8.357,12.35 8.1,12.444 L8.1,12.444 Z" id="Fill-6" sketch:type="MSShapeGroup"></path>
            </g>
        </g>
    </g>
</svg>