<?xml version="1.0" encoding="UTF-8" standalone="no"?>
<svg width="16px" height="17px" viewBox="0 0 16 17" version="1.1" xmlns="http://www.w3.org/2000/svg" xmlns:xlink="http://www.w3.org/1999/xlink" xmlns:sketch="http://www.bohemiancoding.com/sketch/ns">
    <!-- Generator: Sketch 3.2.2 (9983) - http://www.bohemiancoding.com/sketch -->
    <title>people</title>
    <desc>Created with Sketch.</desc>
    <defs></defs>
    <g id="Page-1" stroke="none" stroke-width="1" fill="none" fill-rule="evenodd" sketch:type="MSPage">
        <g id="-icons" sketch:type="MSArtboardGroup" transform="translate(-440.000000, -669.000000)" fill="#999999">
            <g id="people" sketch:type="MSLayerGroup" transform="translate(440.000000, 669.000000)">
                <path d="M8,0.47 C3.582,0.47 0,4.052 0,8.47 C0,12.888 3.582,16.47 8,16.47 C12.418,16.47 16,12.888 16,8.47 C16,4.052 12.418,0.47 8,0.47 L8,0.47 Z M11.248,4.403 C11.848,4.403 12.334,4.889 12.334,5.489 C12.334,6.089 11.848,6.576 11.248,6.576 C10.648,6.576 10.161,6.089 10.161,5.489 C10.161,4.889 10.648,4.403 11.248,4.403 L11.248,4.403 Z M4.639,4.403 C5.239,4.403 5.726,4.889 5.726,5.489 C5.726,6.089 5.239,6.576 4.639,6.576 C4.039,6.576 3.553,6.089 3.553,5.489 C3.553,4.889 4.039,4.403 4.639,4.403 L4.639,4.403 Z M8,13.602 C5.509,13.602 3.395,12.012 2.602,9.794 C3.895,11.046 5.832,11.844 8,11.844 C10.168,11.844 12.105,11.046 13.398,9.794 C12.605,12.012 10.491,13.602 8,13.602 L8,13.602 Z" id="Fill-1" sketch:type="MSShapeGroup"></path>
            </g>
        </g>
    </g>
</svg>