<?xml version="1.0" encoding="UTF-8" standalone="no"?>
<svg width="16px" height="17px" viewBox="0 0 16 17" version="1.1" xmlns="http://www.w3.org/2000/svg" xmlns:xlink="http://www.w3.org/1999/xlink" xmlns:sketch="http://www.bohemiancoding.com/sketch/ns">
    <!-- Generator: Sketch 3.2.2 (9983) - http://www.bohemiancoding.com/sketch -->
    <title>people_active</title>
    <desc>Created with Sketch.</desc>
    <defs></defs>
    <g id="Page-1" stroke="none" stroke-width="1" fill="none" fill-rule="evenodd" sketch:type="MSPage">
        <g id="-icons" sketch:type="MSArtboardGroup" transform="translate(-480.000000, -669.000000)" fill="#FFFFFF">
            <g id="people_active" sketch:type="MSLayerGroup" transform="translate(479.000000, 669.000000)">
                <path d="M8.995,0.47 C4.577,0.47 0.995,4.052 0.995,8.47 C0.995,12.888 4.577,16.47 8.995,16.47 C13.413,16.47 16.995,12.888 16.995,8.47 C16.995,4.052 13.413,0.47 8.995,0.47 L8.995,0.47 Z M12.243,4.403 C12.843,4.403 13.329,4.889 13.329,5.489 C13.329,6.089 12.843,6.576 12.243,6.576 C11.643,6.576 11.156,6.089 11.156,5.489 C11.156,4.889 11.643,4.403 12.243,4.403 L12.243,4.403 Z M5.635,4.403 C6.235,4.403 6.721,4.889 6.721,5.489 C6.721,6.089 6.235,6.576 5.635,6.576 C5.035,6.576 4.548,6.089 4.548,5.489 C4.548,4.889 5.035,4.403 5.635,4.403 L5.635,4.403 Z M8.995,13.602 C6.504,13.602 4.39,12.012 3.597,9.794 C4.891,11.046 6.828,11.844 8.995,11.844 C11.163,11.844 13.1,11.046 14.393,9.794 C13.6,12.012 11.486,13.602 8.995,13.602 L8.995,13.602 Z" id="Fill-4" sketch:type="MSShapeGroup"></path>
            </g>
        </g>
    </g>
</svg>