<?xml version="1.0" encoding="UTF-8" standalone="no"?>
<svg width="23px" height="14px" viewBox="0 0 23 14" version="1.1" xmlns="http://www.w3.org/2000/svg" xmlns:xlink="http://www.w3.org/1999/xlink" xmlns:sketch="http://www.bohemiancoding.com/sketch/ns">
    <!-- Generator: Sketch 3.2.2 (9983) - http://www.bohemiancoding.com/sketch -->
    <title>symbols_active</title>
    <desc>Created with Sketch.</desc>
    <defs></defs>
    <g id="Page-1" stroke="none" stroke-width="1" fill="none" fill-rule="evenodd" sketch:type="MSPage">
        <g id="-icons" sketch:type="MSArtboardGroup" transform="translate(-393.000000, -674.000000)" fill="#FFFFFF">
            <g id="symbols_active" sketch:type="MSLayerGroup" transform="translate(393.000000, 674.000000)">
                <path d="M21.029,0.962 L1.661,0.962 C0.932,0.962 0.34,1.526 0.34,2.22 L0.34,12.702 C0.34,13.396 0.932,13.96 1.661,13.96 L21.029,13.96 C21.758,13.96 22.35,13.396 22.35,12.702 L22.35,2.22 C22.35,1.526 21.758,0.962 21.029,0.962 L21.029,0.962 Z M3.518,10.022 L5.271,10.022 L5.271,11.635 L3.518,11.635 L3.518,10.022 Z M5.312,5.52 L4.837,9.357 L3.964,9.357 L3.477,5.52 L3.477,3.434 L5.312,3.434 L5.312,5.52 L5.312,5.52 Z M9.017,10.022 L10.769,10.022 L10.769,11.635 L9.017,11.635 L9.017,10.022 Z M12.441,6.935 C12.293,7.135 12.009,7.392 11.588,7.705 L11.173,8.012 C10.947,8.18 10.796,8.375 10.722,8.598 C10.676,8.74 10.65,8.96 10.646,9.257 L9.058,9.257 C9.081,8.628 9.143,8.194 9.245,7.954 C9.346,7.713 9.607,7.437 10.028,7.124 L10.455,6.806 C10.595,6.706 10.708,6.596 10.794,6.477 C10.949,6.272 11.027,6.047 11.027,5.801 C11.027,5.518 10.941,5.26 10.767,5.028 C10.594,4.795 10.277,4.679 9.817,4.679 C9.365,4.679 9.044,4.822 8.855,5.109 C8.666,5.395 8.571,5.693 8.571,6.002 L6.877,6.002 C6.924,4.941 7.313,4.189 8.044,3.746 C8.505,3.464 9.072,3.322 9.743,3.322 C10.627,3.322 11.36,3.523 11.945,3.925 C12.529,4.327 12.821,4.922 12.821,5.712 C12.821,6.195 12.695,6.603 12.441,6.935 L12.441,6.935 Z M19.886,6.834 L18.695,6.834 L18.234,8.47 L19.427,8.47 L19.165,9.403 L17.972,9.403 L17.343,11.636 L16.178,11.636 L16.806,9.403 L15.839,9.403 L15.206,11.636 L14.04,11.636 L14.673,9.403 L13.489,9.403 L13.751,8.47 L14.938,8.47 L15.402,6.834 L14.211,6.834 L14.473,5.901 L15.667,5.901 L16.307,3.646 L17.472,3.646 L16.833,5.901 L17.792,5.901 L18.427,3.646 L19.592,3.646 L18.957,5.901 L20.149,5.901 L19.886,6.834 L19.886,6.834 Z M16.104,8.47 L17.069,8.47 L17.529,6.834 L16.568,6.834 L16.104,8.47 L16.104,8.47 Z" id="Fill-2" sketch:type="MSShapeGroup"></path>
            </g>
        </g>
    </g>
</svg>