<?xml version="1.0" encoding="UTF-8" standalone="no"?>
<svg width="18px" height="18px" viewBox="0 0 18 18" version="1.1" xmlns="http://www.w3.org/2000/svg" xmlns:xlink="http://www.w3.org/1999/xlink" xmlns:sketch="http://www.bohemiancoding.com/sketch/ns">
    <!-- Generator: Sketch 3.2.2 (9983) - http://www.bohemiancoding.com/sketch -->
    <title>nature_active</title>
    <desc>Created with Sketch.</desc>
    <defs></defs>
    <g id="Page-1" stroke="none" stroke-width="1" fill="none" fill-rule="evenodd" sketch:type="MSPage">
        <g id="-icons" sketch:type="MSArtboardGroup" transform="translate(-627.000000, -665.000000)" fill="#FFFFFF">
            <g id="nature_active" sketch:type="MSLayerGroup" transform="translate(627.000000, 665.000000)">
                <path d="M17.43,6.543 C16.532,3.816 14.591,4.32 12.241,5.073 C12.136,5.106 12.035,5.145 11.935,5.189 C11.949,5.072 11.957,4.955 11.957,4.836 C11.957,2.399 11.842,0.423 8.935,0.423 C6.027,0.423 5.913,2.399 5.913,4.836 C5.913,4.944 5.92,5.052 5.931,5.158 C5.823,5.109 5.712,5.066 5.597,5.029 C3.247,4.276 1.306,3.773 0.408,6.5 C-0.491,9.226 1.379,9.944 3.73,10.697 C3.834,10.73 3.94,10.758 4.046,10.78 C3.966,10.866 3.889,10.957 3.819,11.053 C2.366,13.025 1.281,14.689 3.633,16.374 C5.985,18.06 7.255,16.527 8.707,14.556 C8.772,14.468 8.831,14.378 8.886,14.285 C8.944,14.387 9.008,14.487 9.079,14.583 C10.531,16.554 11.801,18.086 14.153,16.401 C16.506,14.716 15.42,13.052 13.968,11.08 C13.903,10.992 13.834,10.909 13.761,10.829 C13.878,10.806 13.994,10.777 14.108,10.74 C16.458,9.987 18.329,9.27 17.43,6.543 L17.43,6.543 Z M8.919,11.596 C7.518,11.596 6.382,10.476 6.382,9.094 C6.382,7.713 7.518,6.593 8.919,6.593 C10.32,6.593 11.456,7.713 11.456,9.094 C11.456,10.476 10.32,11.596 8.919,11.596 L8.919,11.596 Z" id="Fill-5" sketch:type="MSShapeGroup"></path>
            </g>
        </g>
    </g>
</svg>