<svg xmlns="http://www.w3.org/2000/svg" width="18" height="18" viewBox="0 0 18 18"><title>  nature</title><desc>  Created with Sketch.</desc><g fill="none"><g fill="#999"><path d="M17.4 6.5C16.5 3.8 14.6 4.3 12.2 5.1 12.1 5.1 12 5.1 11.9 5.2 12 5.1 12 5 12 4.8 12 2.4 11.8 0.4 8.9 0.4 6 0.4 5.9 2.4 5.9 4.8 5.9 4.9 5.9 5.1 5.9 5.2 5.8 5.1 5.7 5.1 5.6 5 3.3 4.3 1.3 3.8 0.4 6.5 -0.5 9.2 1.4 9.9 3.7 10.7 3.8 10.7 3.9 10.8 4.1 10.8 4 10.9 3.9 11 3.8 11.1 2.4 13 1.3 14.7 3.6 16.4 6 18.1 7.3 16.5 8.7 14.6 8.8 14.5 8.8 14.4 8.9 14.3 8.9 14.4 9 14.5 9.1 14.6 10.5 16.6 11.8 18.1 14.2 16.4 16.5 14.7 15.4 13.1 14 11.1 13.9 11 13.8 10.9 13.8 10.8 13.9 10.8 14 10.8 14.1 10.7 16.5 10 18.3 9.3 17.4 6.5L17.4 6.5ZM8.9 11.6C7.5 11.6 6.4 10.5 6.4 9.1 6.4 7.7 7.5 6.6 8.9 6.6 10.3 6.6 11.5 7.7 11.5 9.1 11.5 10.5 10.3 11.6 8.9 11.6L8.9 11.6Z"/></g></g></svg>