<svg xmlns="http://www.w3.org/2000/svg" width="17" height="17" viewBox="0 0 17 17"><title>  objects</title><desc>  Created with Sketch.</desc><g fill="none"><g fill="#999"><path d="M12.9 7C10.7 2.3 9.6 0.6 5.9 0.6 4.7 0.7 5-0.3 4 0.1 3 0.4 3.8 0.9 2.8 1.8 0 4 0.3 6.2 1.6 11.2 2.1 13.3 0.3 13.4 1 15.5 1.5 17 5.5 17.6 9.8 16.1 14 14.5 16.7 11.4 16.1 9.9 15.4 7.9 13.9 9 12.9 7L12.9 7ZM9.3 14.8C5.5 16.2 2.4 15.4 2.3 15 2.1 14.4 3.5 12.3 7.8 10.7 12.2 9.1 14.6 9.7 14.8 10.4 15 10.8 13.1 13.4 9.3 14.8L9.3 14.8ZM8.1 11.4C6.1 12.2 4.8 13 3.9 13.7 4.5 14.3 5.7 14.4 6.8 14 8.3 13.5 9.2 12.2 8.9 11.2 8.9 11.2 8.9 11.2 8.9 11.2 8.6 11.3 8.4 11.4 8.1 11.4L8.1 11.4Z"/></g></g></svg>