<svg xmlns="http://www.w3.org/2000/svg" width="16" height="17" viewBox="0 0 16 17"><title>  people</title><desc>  Created with Sketch.</desc><g fill="none"><g fill="#999"><path d="M8 0.5C3.6 0.5 0 4.1 0 8.5 0 12.9 3.6 16.5 8 16.5 12.4 16.5 16 12.9 16 8.5 16 4.1 12.4 0.5 8 0.5L8 0.5ZM11.2 4.4C11.8 4.4 12.3 4.9 12.3 5.5 12.3 6.1 11.8 6.6 11.2 6.6 10.6 6.6 10.2 6.1 10.2 5.5 10.2 4.9 10.6 4.4 11.2 4.4L11.2 4.4ZM4.6 4.4C5.2 4.4 5.7 4.9 5.7 5.5 5.7 6.1 5.2 6.6 4.6 6.6 4 6.6 3.6 6.1 3.6 5.5 3.6 4.9 4 4.4 4.6 4.4L4.6 4.4ZM8 13.6C5.5 13.6 3.4 12 2.6 9.8 3.9 11 5.8 11.8 8 11.8 10.2 11.8 12.1 11 13.4 9.8 12.6 12 10.5 13.6 8 13.6L8 13.6Z"/></g></g></svg>