<?xml version="1.0" encoding="UTF-8" standalone="no"?>
<svg width="23px" height="17px" viewBox="0 0 23 17" version="1.1" xmlns="http://www.w3.org/2000/svg" xmlns:xlink="http://www.w3.org/1999/xlink" xmlns:sketch="http://www.bohemiancoding.com/sketch/ns">
    <!-- Generator: Sketch 3.2.2 (9983) - http://www.bohemiancoding.com/sketch -->
    <title>places_active</title>
    <desc>Created with Sketch.</desc>
    <defs></defs>
    <g id="Page-1" stroke="none" stroke-width="1" fill="none" fill-rule="evenodd" sketch:type="MSPage">
        <g id="-icons" sketch:type="MSArtboardGroup" transform="translate(-732.000000, -664.000000)" fill="#FFFFFF">
            <g id="places_active" sketch:type="MSLayerGroup" transform="translate(732.000000, 664.000000)">
                <path d="M20.76,8.283 C20.022,7.543 19.114,7.096 18.161,6.942 L18.161,5.452 C18.161,4.027 17.607,2.689 16.602,1.682 C15.597,0.675 14.261,0.12 12.84,0.12 L10.133,0.12 C8.739,0.12 7.427,0.664 6.441,1.653 C5.455,2.641 4.912,3.955 4.912,5.353 L4.912,6.926 C3.935,7.064 2.981,7.506 2.235,8.254 C1.321,9.171 0.836,10.372 0.836,11.574 L0.836,13.159 C0.836,13.342 0.906,13.526 1.046,13.666 C1.185,13.806 1.369,13.876 1.552,13.876 L3.342,13.876 L3.342,15.384 C3.342,15.752 3.482,16.119 3.762,16.399 C4.042,16.679 4.408,16.82 4.775,16.82 L5.312,16.82 C5.678,16.82 6.045,16.679 6.325,16.399 C6.604,16.119 6.744,15.752 6.744,15.384 L6.744,13.876 L16.233,13.876 L16.233,15.384 C16.233,15.752 16.373,16.119 16.653,16.399 C16.933,16.679 17.299,16.82 17.666,16.82 L18.203,16.82 C18.569,16.82 18.936,16.679 19.216,16.399 C19.495,16.119 19.635,15.752 19.635,15.384 L19.635,13.876 L21.425,13.876 C21.609,13.876 21.792,13.806 21.932,13.666 C22.072,13.526 22.142,13.342 22.142,13.159 L22.142,11.672 C22.142,10.446 21.694,9.219 20.76,8.283 L20.76,8.283 Z M5.133,12.082 C4.243,12.082 3.521,11.359 3.521,10.467 C3.521,9.576 4.243,8.853 5.133,8.853 C6.023,8.853 6.744,9.576 6.744,10.467 C6.744,11.359 6.023,12.082 5.133,12.082 L5.133,12.082 Z M5.986,6.879 L5.986,5.353 C5.986,4.243 6.418,3.199 7.201,2.414 C7.984,1.629 9.026,1.197 10.133,1.197 L12.84,1.197 C13.974,1.197 15.041,1.639 15.843,2.443 C16.645,3.246 17.086,4.315 17.086,5.452 L17.086,6.879 L5.986,6.879 L5.986,6.879 Z M17.845,12.082 C16.955,12.082 16.233,11.359 16.233,10.467 C16.233,9.576 16.955,8.853 17.845,8.853 C18.735,8.853 19.456,9.576 19.456,10.467 C19.456,11.359 18.735,12.082 17.845,12.082 L17.845,12.082 Z" id="Fill-2" sketch:type="MSShapeGroup"></path>
            </g>
        </g>
    </g>
</svg>