<svg xmlns="http://www.w3.org/2000/svg" width="23" height="17" viewBox="0 0 23 17"><title>  places_active</title><desc>  Created with Sketch.</desc><g fill="none"><g fill="#FFF"><path d="M20.8 8.3C20 7.5 19.1 7.1 18.2 6.9L18.2 5.5C18.2 4 17.6 2.7 16.6 1.7 15.6 0.7 14.3 0.1 12.8 0.1L10.1 0.1C8.7 0.1 7.4 0.7 6.4 1.7 5.5 2.6 4.9 4 4.9 5.4L4.9 6.9C3.9 7.1 3 7.5 2.2 8.3 1.3 9.2 0.8 10.4 0.8 11.6L0.8 13.2C0.8 13.3 0.9 13.5 1 13.7 1.2 13.8 1.4 13.9 1.6 13.9L3.3 13.9 3.3 15.4C3.3 15.8 3.5 16.1 3.8 16.4 4 16.7 4.4 16.8 4.8 16.8L5.3 16.8C5.7 16.8 6 16.7 6.3 16.4 6.6 16.1 6.7 15.8 6.7 15.4L6.7 13.9 16.2 13.9 16.2 15.4C16.2 15.8 16.4 16.1 16.7 16.4 16.9 16.7 17.3 16.8 17.7 16.8L18.2 16.8C18.6 16.8 18.9 16.7 19.2 16.4 19.5 16.1 19.6 15.8 19.6 15.4L19.6 13.9 21.4 13.9C21.6 13.9 21.8 13.8 21.9 13.7 22.1 13.5 22.1 13.3 22.1 13.2L22.1 11.7C22.1 10.4 21.7 9.2 20.8 8.3L20.8 8.3ZM5.1 12.1C4.2 12.1 3.5 11.4 3.5 10.5 3.5 9.6 4.2 8.9 5.1 8.9 6 8.9 6.7 9.6 6.7 10.5 6.7 11.4 6 12.1 5.1 12.1L5.1 12.1ZM6 6.9L6 5.4C6 4.2 6.4 3.2 7.2 2.4 8 1.6 9 1.2 10.1 1.2L12.8 1.2C14 1.2 15 1.6 15.8 2.4 16.6 3.2 17.1 4.3 17.1 5.5L17.1 6.9 6 6.9 6 6.9ZM17.8 12.1C17 12.1 16.2 11.4 16.2 10.5 16.2 9.6 17 8.9 17.8 8.9 18.7 8.9 19.5 9.6 19.5 10.5 19.5 11.4 18.7 12.1 17.8 12.1L17.8 12.1Z"/></g></g></svg>