<svg xmlns="http://www.w3.org/2000/svg" width="20" height="20" viewBox="0 0 20 20"><style>.a{fill:#FFF;}.b{fill:#231F1F;}</style><title>  srickers-q</title><desc>  Created with Sketch.</desc><g fill="none"><path d="M19.9 15.5C19.9 17.5 18.3 19.2 16.2 19.2L4.6 19.2C2.6 19.2 0.9 17.5 0.9 15.5L0.9 3.8C0.9 1.8 2.6 0.2 4.6 0.2L16.2 0.2C18.3 0.2 19.9 1.8 19.9 3.8L19.9 15.5" fill="#91BE1F"/><path d="M18.9 6.9C18.9 9 17.3 10.6 15.3 10.6 13.2 10.6 11.6 9 11.6 6.9 11.6 4.9 13.2 3.3 15.3 3.3 17.3 3.3 18.9 4.9 18.9 6.9" class="a"/><path d="M17.7 6.9C17.7 8.3 16.6 9.3 15.3 9.3 13.9 9.3 12.9 8.3 12.9 6.9 12.9 5.6 13.9 4.5 15.3 4.5 16.6 4.5 17.7 5.6 17.7 6.9" class="b"/><path d="M16.6 6.4C16.6 6.9 16.2 7.3 15.7 7.3 15.2 7.3 14.8 6.9 14.8 6.4 14.8 5.9 15.2 5.5 15.7 5.5 16.2 5.5 16.6 5.9 16.6 6.4" class="a"/><path d="M9.6 6.9C9.6 9 7.9 10.6 5.9 10.6 3.9 10.6 2.3 9 2.3 6.9 2.3 4.9 3.9 3.3 5.9 3.3 7.9 3.3 9.6 4.9 9.6 6.9" class="a"/><path d="M8.3 6.9C8.3 8.3 7.2 9.3 5.9 9.3 4.6 9.3 3.5 8.3 3.5 6.9 3.5 5.6 4.6 4.5 5.9 4.5 7.2 4.5 8.3 5.6 8.3 6.9" class="b"/><path d="M7.3 6.4C7.3 6.9 6.8 7.3 6.3 7.3 5.8 7.3 5.4 6.9 5.4 6.4 5.4 5.9 5.8 5.5 6.3 5.5 6.8 5.5 7.3 5.9 7.3 6.4" class="a"/><path d="M10.4 17.5C12.9 17.5 14.8 15.5 14.8 13.1 12.1 14.4 9.1 14.4 6 13.1 6 15.5 8 17.5 10.4 17.5" fill="#066633"/></g></svg>