<svg xmlns="http://www.w3.org/2000/svg" width="23" height="14" viewBox="0 0 23 14"><title>  symbols</title><desc>  Created with Sketch.</desc><g fill="none"><g fill="#999"><path d="M21 1L1.7 1C0.9 1 0.3 1.5 0.3 2.2L0.3 12.7C0.3 13.4 0.9 14 1.7 14L21 14C21.8 14 22.4 13.4 22.4 12.7L22.4 2.2C22.4 1.5 21.8 1 21 1L21 1ZM3.5 10L5.3 10 5.3 11.6 3.5 11.6 3.5 10ZM5.3 5.5L4.8 9.4 4 9.4 3.5 5.5 3.5 3.4 5.3 3.4 5.3 5.5 5.3 5.5ZM9 10L10.8 10 10.8 11.6 9 11.6 9 10ZM12.4 6.9C12.3 7.1 12 7.4 11.6 7.7L11.2 8C11 8.2 10.8 8.4 10.7 8.6 10.7 8.7 10.7 9 10.7 9.3L9.1 9.3C9.1 8.6 9.1 8.2 9.3 8 9.4 7.7 9.6 7.4 10 7.1L10.5 6.8C10.6 6.7 10.7 6.6 10.8 6.5 11 6.3 11 6 11 5.8 11 5.5 10.9 5.3 10.8 5 10.6 4.8 10.3 4.7 9.8 4.7 9.4 4.7 9 4.8 8.9 5.1 8.7 5.4 8.6 5.7 8.6 6L6.9 6C6.9 4.9 7.3 4.2 8 3.7 8.5 3.5 9.1 3.3 9.7 3.3 10.6 3.3 11.4 3.5 11.9 3.9 12.5 4.3 12.8 4.9 12.8 5.7 12.8 6.2 12.7 6.6 12.4 6.9L12.4 6.9ZM19.9 6.8L18.7 6.8 18.2 8.5 19.4 8.5 19.2 9.4 18 9.4 17.3 11.6 16.2 11.6 16.8 9.4 15.8 9.4 15.2 11.6 14 11.6 14.7 9.4 13.5 9.4 13.8 8.5 14.9 8.5 15.4 6.8 14.2 6.8 14.5 5.9 15.7 5.9 16.3 3.6 17.5 3.6 16.8 5.9 17.8 5.9 18.4 3.6 19.6 3.6 19 5.9 20.2 5.9 19.9 6.8 19.9 6.8ZM16.1 8.5L17.1 8.5 17.5 6.8 16.6 6.8 16.1 8.5 16.1 8.5Z"/></g></g></svg>