<svg xmlns="http://www.w3.org/2000/svg" width="32" height="32" viewBox="0 0 32 32">
    <path fill="#00C72D" fill-rule="evenodd" d="M10.88 0C7.333 0 6.2 0 4.6.533A6.72 6.72 0 0 0 .533 4.6C0 6.2 0 7.333 0 10.88v10.24c0 3.547 0 4.68.533 6.28A6.723 6.723 0 0 0 4.6 31.467C6.2 32 7.333 32 10.88 32h10.24c3.547 0 4.68 0 6.28-.533a6.72 6.72 0 0 0 4.067-4.067C32 25.8 32 24.667 32 21.12V10.88c0-3.547 0-4.68-.533-6.28a6.82 6.82 0 0 0-4.07-4.067C25.797 0 24.667 0 21.12 0H10.88zm13.387 28l-6.134-3.733h-8c-1.492.077-2.666-1.103-2.666-2.667V10.133a2.647 2.647 0 0 1 2.666-2.666H21.6a2.646 2.646 0 0 1 2.667 2.666V28z"/>
</svg>
