<?xml version="1.0" encoding="UTF-8" standalone="no"?>
<svg width="140px" height="140px" viewBox="0 0 140 140" version="1.1" xmlns="http://www.w3.org/2000/svg" xmlns:xlink="http://www.w3.org/1999/xlink">
    <!-- Generator: Sketch 39.1 (31720) - http://www.bohemiancoding.com/sketch -->
    <title>ava-group</title>
    <desc>Created with Sketch.</desc>
    <defs></defs>
    <g id="Page-1" stroke="none" stroke-width="1" fill="none" fill-rule="evenodd">
        <g id="-icons" transform="translate(-1501.000000, -296.000000)">
            <g id="ava-group" transform="translate(1501.000000, 296.000000)">
                <polygon id="Fill-53" fill="#D2D2D1" points="0.717626765 0 139.287188 0 139.287188 139.581018 0.717626765 139.581018"></polygon>
                <path d="M60.1431832,81.7840081 C54.7597558,75.0701611 51.7077612,66.6045723 51.7077612,57.8458634 C51.7077612,55.0298164 52.0333996,52.2905389 52.6119275,49.6489682 C49.9964271,48.8219506 47.2146431,48.3718018 44.3254678,48.3718018 C29.0620306,48.3718018 16.6843045,60.8363868 16.6843045,76.2147254 C16.6843045,85.3677507 21.0700311,93.4843869 27.83569,98.5616464 C15.5722838,105.418564 5.73038065,119.697702 0.717626765,137.755996 L0.717626765,139.581018 L31.0401111,139.581018 C34.4281368,115.042675 44.966352,93.9938576 60.1431832,81.7840081" id="Fill-54" fill="#FFFFFF"></path>
                <path d="M139.287188,131.293395 C134.187828,108.890642 122.59302,91.0068238 107.849219,82.7610752 C115.394332,77.1010649 120.282373,68.0492359 120.282373,57.8458634 C120.282373,40.6983354 106.480845,26.796066 89.457574,26.796066 C72.4343033,26.796066 58.6362392,40.6983354 58.6362392,57.8458634 C58.6362392,68.0492359 63.5208163,77.1010649 71.0659289,82.7610752 C54.5449729,92.0013386 41.9732495,113.336297 38.0759805,139.581018 L139.287188,139.581018 L139.287188,131.293395" id="Fill-55" fill="#FFFFFF"></path>
            </g>
        </g>
    </g>
</svg>