<svg xmlns="http://www.w3.org/2000/svg" width="41" height="40" viewBox="0 0 41 40"><style>.a{fill:#FFF;}</style><title>  ava-group</title><desc>  Created with Sketch.</desc><g fill="none"><path d="M0.5 0L40.5 0 40.5 40 0.5 40 0.5 0Z" fill="#D2D2D1"/><path d="M17.7 23.4C16.1 21.5 15.2 19.1 15.2 16.6 15.2 15.8 15.3 15 15.5 14.2 14.7 14 13.9 13.9 13.1 13.9 8.7 13.9 5.1 17.4 5.1 21.8 5.1 24.5 6.4 26.8 8.3 28.2 4.8 30.2 1.9 34.3 0.5 39.5L0.5 40 9.3 40C10.2 33 13.3 26.9 17.7 23.4" class="a"/><path d="M40.5 37.6C39 31.2 35.7 26.1 31.4 23.7 33.6 22.1 35 19.5 35 16.6 35 11.7 31 7.7 26.1 7.7 21.2 7.7 17.2 11.7 17.2 16.6 17.2 19.5 18.6 22.1 20.8 23.7 16 26.4 12.4 32.5 11.3 40L40.5 40 40.5 37.6" class="a"/></g></svg>