<svg xmlns="http://www.w3.org/2000/svg" width="140" height="140" viewBox="0 0 140 140"><style>.a{fill:#FFF;}</style><title>  ava-group</title><desc>  Created with Sketch.</desc><g fill="none"><g transform="translate(-1501 -296)translate(1501 296)"><polygon points="0.7 0 139.3 0 139.3 139.6 0.7 139.6" fill="#D2D2D1"/><path d="M60.1 81.8C54.8 75.1 51.7 66.6 51.7 57.8 51.7 55 52 52.3 52.6 49.6 50 48.8 47.2 48.4 44.3 48.4 29.1 48.4 16.7 60.8 16.7 76.2 16.7 85.4 21.1 93.5 27.8 98.6 15.6 105.4 5.7 119.7 0.7 137.8L0.7 139.6 31 139.6C34.4 115 45 94 60.1 81.8" class="a"/><path d="M139.3 131.3C134.2 108.9 122.6 91 107.8 82.8 115.4 77.1 120.3 68 120.3 57.8 120.3 40.7 106.5 26.8 89.5 26.8 72.4 26.8 58.6 40.7 58.6 57.8 58.6 68 63.5 77.1 71.1 82.8 54.5 92 42 113.3 38.1 139.6L139.3 139.6 139.3 131.3" class="a"/></g></g></svg>