<svg xmlns="http://www.w3.org/2000/svg" width="20" height="24" viewBox="0 0 20 24"><title>  B61CEDBA-0232-4067-9CF6-C3F93D0577CA</title><desc>  Created with sketchtool.</desc><g fill="none"><g transform="translate(-866 -744)translate(864 744)"><polygon points="0 0 24 0 24 24 0 24"/><path d="M6 18C6 18.6 6.5 19 7 19L8 19 8 22.5C8 23.3 8.7 24 9.5 24 10.3 24 11 23.3 11 22.5L11 19 13 19 13 22.5C13 23.3 13.7 24 14.5 24 15.3 24 16 23.3 16 22.5L16 19 17 19C17.6 19 18 18.6 18 18L18 8 6 8 6 18 6 18ZM3.5 8C2.7 8 2 8.7 2 9.5L2 16.5C2 17.3 2.7 18 3.5 18 4.3 18 5 17.3 5 16.5L5 9.5C5 8.7 4.3 8 3.5 8L3.5 8ZM20.5 8C19.7 8 19 8.7 19 9.5L19 16.5C19 17.3 19.7 18 20.5 18 21.3 18 22 17.3 22 16.5L22 9.5C22 8.7 21.3 8 20.5 8L20.5 8ZM15.5 2.2L16.8 0.9C17 0.7 17 0.4 16.8 0.2 16.6 0 16.3 0 16.1 0.2L14.6 1.6C13.9 1.2 13 1 12 1 11 1 10.1 1.2 9.3 1.6L7.9 0.2C7.7 0 7.3 0 7.1 0.2 6.9 0.4 6.9 0.7 7.1 0.9L8.5 2.2C7 3.3 6 5 6 7L18 7C18 5 17 3.3 15.5 2.2L15.5 2.2ZM10 5L9 5 9 4 10 4 10 5 10 5ZM15 5L14 5 14 4 15 4 15 5 15 5Z" fill="#959595"/></g></g></svg>