<?xml version="1.0" encoding="UTF-8" standalone="no"?>
<svg width="24px" height="24px" viewBox="0 0 24 24" version="1.1" xmlns="http://www.w3.org/2000/svg" xmlns:xlink="http://www.w3.org/1999/xlink">
    <!-- Generator: sketchtool 3.8.3 (29802) - http://www.bohemiancoding.com/sketch -->
    <title>06264DE0-4777-48E1-B8C4-78DDFD4BA80D</title>
    <desc>Created with sketchtool.</desc>
    <defs></defs>
    <g id="Welcome" stroke="none" stroke-width="1" fill="none" fill-rule="evenodd">
        <g transform="translate(-824.000000, -744.000000)" id="ic_appstore">
            <g transform="translate(824.000000, 744.000000)">
                <rect id="Rectangle-58" fill="#FFFFFF" opacity="0.252740205" x="0" y="0" width="24" height="24"></rect>
                <path d="M16.9060456,5.91253177 C19.4553436,5.91253177 21.0855142,8.37911125 21.0855142,8.37911125 C21.0855142,8.37911125 18.5987493,9.72856473 18.5987493,12.6592563 C18.5987493,16.1376545 21.722704,17.1494732 21.722704,17.1494732 C21.722704,17.1494732 19.256963,23 16.4882605,23 C14.9314044,23 14.8273624,22.104345 12.7583826,22.104345 C10.961637,22.104345 10.3557138,23 8.98699577,23 C6.37462575,23 3,17.2971206 3,12.6592563 C3,7.84171828 6.4166738,5.91253177 8.55842909,5.91253177 C10.4392708,5.91253177 11.2225506,7.01934417 12.7373586,7.01934417 C14.0122771,7.01934417 15.0155005,5.91253177 16.9060456,5.91253177 L16.9060456,5.91253177 Z M16.4677756,1 C16.8435126,3.36127218 14.7017574,6.28165018 12.1422169,6.18665647 C11.7659408,3.18214118 14.5244008,1.15850379 16.4677756,1 L16.4677756,1 Z" id="Imported-Layers" fill="#9B9B9B"></path>
            </g>
        </g>
    </g>
</svg>