<svg xmlns="http://www.w3.org/2000/svg" width="24" height="24" viewBox="0 0 24 24"><title>  06264DE0-4777-48E1-B8C4-78DDFD4BA80D</title><desc>  Created with sketchtool.</desc><g fill="none"><rect width="24" height="24" style="fill:#FFF;opacity:0.3"/><path d="M16.9 5.9C19.5 5.9 21.1 8.4 21.1 8.4 21.1 8.4 18.6 9.7 18.6 12.7 18.6 16.1 21.7 17.1 21.7 17.1 21.7 17.1 19.3 23 16.5 23 14.9 23 14.8 22.1 12.8 22.1 11 22.1 10.4 23 9 23 6.4 23 3 17.3 3 12.7 3 7.8 6.4 5.9 8.6 5.9 10.4 5.9 11.2 7 12.7 7 14 7 15 5.9 16.9 5.9L16.9 5.9ZM16.5 1C16.8 3.4 14.7 6.3 12.1 6.2 11.8 3.2 14.5 1.2 16.5 1L16.5 1Z" fill="#9B9B9B"/></g></svg>