<svg xmlns="http://www.w3.org/2000/svg" width="20" height="20" viewBox="0 0 20 20"><title>  D4CCDAF9-A495-4F85-8AC5-0F57B669745A</title><desc>  Created with sketchtool.</desc><g fill="none"><g transform="translate(-514 -467)translate(488 201)translate(24 256)translate(0 8)"><polygon points="0 0 24 0 24 24 0 24"/><path d="M20 2L4 2C2.9 2 2 2.9 2 4L2 22 6 18 20 18C21.1 18 22 17.1 22 16L22 4C22 2.9 21.1 2 20 2L20 2ZM13 14L11 14 11 12 13 12 13 14 13 14ZM13 10L11 10 11 6 13 6 13 10 13 10Z" fill="#6E6E6E"/></g></g></svg>