<svg xmlns="http://www.w3.org/2000/svg" width="20" height="20" viewBox="0 0 20 20"><title>  12868E98-83AD-4AB9-B86D-11447891E909</title><desc>  Created with sketchtool.</desc><g fill="none"><g transform="translate(-515 -507)translate(488 201)translate(25 304)"><polygon points="0 0 24 0 24 24 0 24"/><path d="M11 18L13 18 13 16 11 16 11 18 11 18ZM12 2C6.5 2 2 6.5 2 12 2 17.5 6.5 22 12 22 17.5 22 22 17.5 22 12 22 6.5 17.5 2 12 2L12 2ZM12 20C7.6 20 4 16.4 4 12 4 7.6 7.6 4 12 4 16.4 4 20 7.6 20 12 20 16.4 16.4 20 12 20L12 20ZM12 6C9.8 6 8 7.8 8 10L10 10C10 8.9 10.9 8 12 8 13.1 8 14 8.9 14 10 14 12 11 11.8 11 15L13 15C13 12.8 16 12.5 16 10 16 7.8 14.2 6 12 6L12 6Z" fill="#6E6E6E"/></g></g></svg>