<svg xmlns="http://www.w3.org/2000/svg" width="16" height="20" viewBox="0 0 16 20"><title>  5E848C27-D8FC-4B17-BF9C-12703D7E2BDA</title><desc>  Created with sketchtool.</desc><g fill="none"><g transform="translate(-517 -282)translate(488 201)translate(25 79)"><polygon points="0 0 24 0 24 24 0 24"/><path d="M12 22C12.1 22 12.3 22 12.4 22 13.1 21.8 13.6 21.4 13.8 20.8 13.9 20.5 14 20.3 14 20L10 20C10 21.1 10.9 22 12 22L12 22ZM18 11C18 7.9 16.4 5.4 13.5 4.7L13.5 4C13.5 3.2 12.8 2.5 12 2.5 11.2 2.5 10.5 3.2 10.5 4L10.5 4.7C7.6 5.4 6 7.9 6 11L6 16 4 18 4 19 20 19 20 18 18 16 18 11 18 11Z" fill="#6E6E6E"/></g></g></svg>