<?xml version="1.0" encoding="UTF-8"?>
<svg width="44px" height="44px" viewBox="0 0 44 44" version="1.1" xmlns="http://www.w3.org/2000/svg" xmlns:xlink="http://www.w3.org/1999/xlink">
    <!-- Generator: sketchtool 42 (36781) - http://www.bohemiancoding.com/sketch -->
    <title>AB24EBBB-B1BB-4570-97FB-EB3A14E2F570</title>
    <desc>Created with sketchtool.</desc>
    <defs></defs>
    <g id="Chat" stroke="none" stroke-width="1" fill="none" fill-rule="evenodd">
        <g id="Message-Feed" transform="translate(-185.000000, -1093.000000)">
            <g id="Message/name-Copy-2" transform="translate(0.000000, 1009.000000)">
                <g id="ic-play-video" transform="translate(185.000000, 84.000000)">
                    <ellipse id="Oval" fill-opacity="0.52173913" fill="#000000" cx="22" cy="22" rx="22" ry="22"></ellipse>
                    <path d="M22,44 C9.8497355,44 0,34.1502645 0,22 C0,9.8497355 9.8497355,0 22,0 C34.1502645,0 44,9.8497355 44,22 C44,34.1502645 34.1502645,44 22,44 Z M32.3388672,20.8925781 L17.6611328,11.1074219 C16.750521,10.5003473 16,10.8976452 16,12.0049466 L16,31.9950534 C16,33.1029738 16.7437145,33.5041903 17.6611328,32.8925781 L32.3388672,23.1074219 C33.249479,22.5003473 33.2562855,21.5041903 32.3388672,20.8925781 Z" id="Combined-Shape" fill="#FFFFFF" opacity="0.8"></path>
                </g>
            </g>
        </g>
    </g>
</svg>