<svg xmlns="http://www.w3.org/2000/svg" width="20" height="11" viewBox="0 0 20 11"><title>  ic_attachment</title><desc>  Created with Sketch.</desc><g fill="none"><g transform="translate(-291 -131)translate(289 124)"><polygon points="0 0 24 0 24 24 0 24"/><path d="M2 12.5C2 9.5 4.5 7 7.5 7L18 7C20.2 7 22 8.8 22 11 22 13.2 20.2 15 18 15L9.5 15C8.1 15 7 13.9 7 12.5 7 11.1 8.1 10 9.5 10L17 10 17 12 9.4 12C8.9 12 8.9 13 9.4 13L18 13C19.1 13 20 12.1 20 11 20 9.9 19.1 9 18 9L7.5 9C5.6 9 4 10.6 4 12.5 4 14.4 5.6 16 7.5 16L17 16 17 18 7.5 18C4.5 18 2 15.5 2 12.5L2 12.5Z" fill="#959595"/></g></g></svg>