<svg xmlns="http://www.w3.org/2000/svg" width="10" height="12" viewBox="0 0 10 12"><title>  ic_location_sm</title><desc>  Created with Sketch.</desc><g fill="none"><g transform="translate(-116 -130)translate(114 129)"><polygon points="0 0 14 0 14 14 0 14"/><path d="M7 1.2C4.7 1.2 2.9 3 2.9 5.3 2.9 8.3 7 12.8 7 12.8 7 12.8 11.1 8.3 11.1 5.3 11.1 3 9.3 1.2 7 1.2L7 1.2ZM7 6.7C6.2 6.7 5.5 6.1 5.5 5.3 5.5 4.4 6.2 3.8 7 3.8 7.8 3.8 8.5 4.4 8.5 5.3 8.5 6.1 7.8 6.7 7 6.7L7 6.7Z" fill="#959595"/></g></g></svg>