<?xml version="1.0" encoding="UTF-8" standalone="no"?>
<svg width="10px" height="12px" viewBox="0 0 10 12" version="1.1" xmlns="http://www.w3.org/2000/svg" xmlns:xlink="http://www.w3.org/1999/xlink">
    <!-- Generator: Sketch 3.7.2 (28276) - http://www.bohemiancoding.com/sketch -->
    <title>ic_location_sm</title>
    <desc>Created with Sketch.</desc>
    <defs></defs>
    <g id="Components" stroke="none" stroke-width="1" fill="none" fill-rule="evenodd">
        <g id="Desktop-HD" transform="translate(-116.000000, -130.000000)">
            <g id="ic_location_sm" transform="translate(114.000000, 129.000000)">
                <polygon id="Bounds" points="0 0 14 0 14 14 0 14"></polygon>
                <path d="M7,1.16666667 C4.7425,1.16666667 2.91666667,2.9925 2.91666667,5.25 C2.91666667,8.3125 7,12.8333333 7,12.8333333 C7,12.8333333 11.0833333,8.3125 11.0833333,5.25 C11.0833333,2.9925 9.2575,1.16666667 7,1.16666667 L7,1.16666667 Z M7,6.70833333 C6.195,6.70833333 5.54166667,6.055 5.54166667,5.25 C5.54166667,4.445 6.195,3.79166667 7,3.79166667 C7.805,3.79166667 8.45833333,4.445 8.45833333,5.25 C8.45833333,6.055 7.805,6.70833333 7,6.70833333 L7,6.70833333 Z" id="Icon" fill="#959595"></path>
            </g>
        </g>
    </g>
</svg>