<svg xmlns="http://www.w3.org/2000/svg" width="20" height="20" viewBox="0 0 20 20"><style>.a{fill:#17d04b;}</style><title>  ic_sentiment_satisfied</title><desc>  Created with Sketch.</desc><g fill="none"><g transform="translate(-211 -126)translate(209 124)"><polygon points="0 0 24 0 24 24 0 24"/><circle cx="15.5" cy="9.5" r="1.5" class="a"/><circle cx="8.5" cy="9.5" r="1.5" class="a"/><path d="M12 2C6.5 2 2 6.5 2 12 2 17.5 6.5 22 12 22 17.5 22 22 17.5 22 12 22 6.5 17.5 2 12 2L12 2ZM12 20C7.6 20 4 16.4 4 12 4 7.6 7.6 4 12 4 16.4 4 20 7.6 20 12 20 16.4 16.4 20 12 20L12 20ZM12 16C10.5 16 9.3 15.2 8.6 14L6.9 14C7.7 16.1 9.7 17.5 12 17.5 14.3 17.5 16.3 16.1 17.1 14L15.5 14C14.8 15.2 13.5 16 12 16L12 16Z" class="a"/></g></g></svg>