<?xml version="1.0" encoding="UTF-8" standalone="no"?>
<svg width="20px" height="20px" viewBox="0 0 20 20" version="1.1" xmlns="http://www.w3.org/2000/svg" xmlns:xlink="http://www.w3.org/1999/xlink">
    <!-- Generator: Sketch 3.7.2 (28276) - http://www.bohemiancoding.com/sketch -->
    <title>ic_sentiment_satisfied</title>
    <desc>Created with Sketch.</desc>
    <defs></defs>
    <g id="Components" stroke="none" stroke-width="1" fill="none" fill-rule="evenodd">
        <g id="Desktop-HD" transform="translate(-211.000000, -126.000000)">
            <g id="ic_sentiment_satisfied" transform="translate(209.000000, 124.000000)">
                <polygon id="Bounds" points="0 0 24 0 24 24 0 24"></polygon>
                <circle id="Icon" fill="#007de3" cx="15.5" cy="9.5" r="1.5"></circle>
                <circle id="Icon" fill="#007de3" cx="8.5" cy="9.5" r="1.5"></circle>
                <path d="M11.99,2 C6.47,2 2,6.48 2,12 C2,17.52 6.47,22 11.99,22 C17.52,22 22,17.52 22,12 C22,6.48 17.52,2 11.99,2 L11.99,2 Z M12,20 C7.58,20 4,16.42 4,12 C4,7.58 7.58,4 12,4 C16.42,4 20,7.58 20,12 C20,16.42 16.42,20 12,20 L12,20 Z M12,16 C10.52,16 9.25,15.19 8.55,14 L6.88,14 C7.68,16.05 9.67,17.5 12,17.5 C14.33,17.5 16.32,16.05 17.12,14 L15.45,14 C14.75,15.19 13.48,16 12,16 L12,16 Z" id="Icon" fill="#007de3"></path>
            </g>
        </g>
    </g>
</svg>