<svg xmlns="http://www.w3.org/2000/svg" width="17" height="20" viewBox="0 0 17 20"><title>  icon-delete</title><desc>  Created with Sketch.</desc><g fill="none"><g fill="#959595"><path d="M15 16C15 16.9 14.8 18 14.1 18.7 13.4 19.4 12.6 20 11.7 20L4.5 20C3.6 20 3.2 19.4 2.5 18.7 1.8 18 2 16.9 2 16L2 7 15 7 15 16"/><path d="M0 4L17 4 17 6 0 6 0 4Z"/><path d="M5.8 0C5.4 0 4.9 0.1 4.6 0.5 4.3 0.8 4 1.2 4 1.7L4 4 6 4 6 2 11 2 11 4 13 4 13 1.7C13 1.2 12.5 0.8 12.2 0.5 12 0.1 11.2 0 10.9 0L5.8 0"/></g></g></svg>