<?xml version="1.0" encoding="UTF-8" standalone="no"?>
<svg width="20px" height="19px" viewBox="0 0 20 19" version="1.1" xmlns="http://www.w3.org/2000/svg" xmlns:xlink="http://www.w3.org/1999/xlink" xmlns:sketch="http://www.bohemiancoding.com/sketch/ns">
    <!-- Generator: Sketch 3.2.2 (9983) - http://www.bohemiancoding.com/sketch -->
    <title>icon-request</title>
    <desc>Created with Sketch.</desc>
    <defs></defs>
    <g id="Page-1" stroke="none" stroke-width="1" fill="none" fill-rule="evenodd" sketch:type="MSPage">
        <g id="-icons" sketch:type="MSArtboardGroup" transform="translate(-471.000000, -451.000000)" fill="#BEBEBE">
            <g id="icon-request" sketch:type="MSLayerGroup" transform="translate(471.000000, 451.000000)">
                <path d="M8.579,14.228 C8.579,11.485 10.28,9.144 12.683,8.19 C13.21,7.406 13.519,6.464 13.519,5.449 C13.519,2.728 11.311,0.519 8.589,0.519 C5.868,0.519 3.661,2.724 3.661,5.446 C3.661,7.092 4.47,8.552 5.71,9.447 C3.388,10.514 1.584,12.839 0.861,15.728 L8.759,15.728 C8.646,15.245 8.579,14.745 8.579,14.228" id="Fill-39" sketch:type="MSShapeGroup"></path>
                <path d="M15.079,9.728 C12.593,9.728 10.579,11.742 10.579,14.228 C10.579,16.713 12.593,18.728 15.079,18.728 C17.564,18.728 19.579,16.713 19.579,14.228 C19.579,11.742 17.564,9.728 15.079,9.728 L15.079,9.728 Z M17.579,14.728 L15.579,14.728 L15.579,16.728 L14.579,16.728 L14.579,14.728 L12.579,14.728 L12.579,13.728 L14.579,13.728 L14.579,11.728 L15.579,11.728 L15.579,13.728 L17.579,13.728 L17.579,14.728 L17.579,14.728 Z" id="Fill-40" sketch:type="MSShapeGroup"></path>
            </g>
        </g>
    </g>
</svg>