<svg xmlns="http://www.w3.org/2000/svg" width="20" height="19" viewBox="0 0 20 19"><title>  icon-request</title><desc>  Created with Sketch.</desc><g fill="none"><g fill="#BEBEBE"><path d="M8.6 14.2C8.6 11.5 10.3 9.1 12.7 8.2 13.2 7.4 13.5 6.5 13.5 5.4 13.5 2.7 11.3 0.5 8.6 0.5 5.9 0.5 3.7 2.7 3.7 5.4 3.7 7.1 4.5 8.6 5.7 9.4 3.4 10.5 1.6 12.8 0.9 15.7L8.8 15.7C8.6 15.2 8.6 14.7 8.6 14.2"/><path d="M15.1 9.7C12.6 9.7 10.6 11.7 10.6 14.2 10.6 16.7 12.6 18.7 15.1 18.7 17.6 18.7 19.6 16.7 19.6 14.2 19.6 11.7 17.6 9.7 15.1 9.7L15.1 9.7ZM17.6 14.7L15.6 14.7 15.6 16.7 14.6 16.7 14.6 14.7 12.6 14.7 12.6 13.7 14.6 13.7 14.6 11.7 15.6 11.7 15.6 13.7 17.6 13.7 17.6 14.7 17.6 14.7Z"/></g></g></svg>