<svg xmlns="http://www.w3.org/2000/svg" width="19" height="18" viewBox="0 0 19 18"><title>  icon-search</title><desc>  Created with Sketch.</desc><g fill="none"><g fill="#C6C6C6"><path d="M17.5 17.7L12.6 12.9 13.2 12.3 18.1 17.1 17.5 17.7"/><path d="M8.1 15C4.2 15 0.9 11.7 0.9 7.7 0.9 3.8 4.2 0.5 8.1 0.5 12.1 0.5 15.4 3.8 15.4 7.7 15.4 11.7 12.1 15 8.1 15L8.1 15ZM8.1 1.4C4.6 1.4 1.8 4.2 1.8 7.7 1.8 11.3 4.6 14.1 8.1 14.1 11.7 14.1 14.5 11.3 14.5 7.7 14.5 4.2 11.7 1.4 8.1 1.4L8.1 1.4Z"/></g></g></svg>