<?xml version="1.0" encoding="UTF-8" standalone="no"?>
<svg width="21px" height="21px" viewBox="0 0 21 21" version="1.1" xmlns="http://www.w3.org/2000/svg" xmlns:xlink="http://www.w3.org/1999/xlink" xmlns:sketch="http://www.bohemiancoding.com/sketch/ns">
    <!-- Generator: Sketch 3.2.2 (9983) - http://www.bohemiancoding.com/sketch -->
    <title>icon-add</title>
    <desc>Created with Sketch.</desc>
    <defs></defs>
    <g id="Page-1" stroke="none" stroke-width="1" fill="none" fill-rule="evenodd" sketch:type="MSPage">
        <g id="-icons" sketch:type="MSArtboardGroup" transform="translate(-1340.000000, -457.000000)" fill="#C6C6C6">
            <g id="icon-add" sketch:type="MSLayerGroup" transform="translate(1340.000000, 457.000000)">
                <path d="M10.875,0.875 C5.352,0.875 0.875,5.352 0.875,10.875 C0.875,16.398 5.352,20.875 10.875,20.875 C16.398,20.875 20.875,16.398 20.875,10.875 C20.875,5.352 16.398,0.875 10.875,0.875 L10.875,0.875 Z M17,12 L12,12 L12,17 L10,17 L10,12 L5,12 L5,10 L10,10 L10,5 L12,5 L12,10 L17,10 L17,12 L17,12 Z" id="Fill-11" sketch:type="MSShapeGroup"></path>
            </g>
        </g>
    </g>
</svg>