<?xml version="1.0" encoding="UTF-8" standalone="no"?>
<svg width="19px" height="18px" viewBox="0 0 19 18" version="1.1" xmlns="http://www.w3.org/2000/svg" xmlns:xlink="http://www.w3.org/1999/xlink" xmlns:sketch="http://www.bohemiancoding.com/sketch/ns">
    <!-- Generator: Sketch 3.2.2 (9983) - http://www.bohemiancoding.com/sketch -->
    <title>icon-search</title>
    <desc>Created with Sketch.</desc>
    <defs></defs>
    <g id="Page-1" stroke="none" stroke-width="1" fill="none" fill-rule="evenodd" sketch:type="MSPage">
        <g id="-icons" sketch:type="MSArtboardGroup" transform="translate(-426.000000, -451.000000)" fill="#C6C6C6">
            <g id="icon-search" sketch:type="MSLayerGroup" transform="translate(426.000000, 451.000000)">
                <path d="M17.482,17.679 L12.604,12.893 L13.2,12.287 L18.078,17.073 L17.482,17.679" id="Fill-12" sketch:type="MSShapeGroup"></path>
                <path d="M8.143,14.96 C4.162,14.96 0.922,11.721 0.922,7.74 C0.922,3.758 4.162,0.519 8.143,0.519 C12.124,0.519 15.364,3.758 15.364,7.74 C15.364,11.721 12.124,14.96 8.143,14.96 L8.143,14.96 Z M8.143,1.369 C4.63,1.369 1.772,4.227 1.772,7.74 C1.772,11.252 4.63,14.111 8.143,14.111 C11.656,14.111 14.514,11.252 14.514,7.74 C14.514,4.227 11.656,1.369 8.143,1.369 L8.143,1.369 Z" id="Fill-13" sketch:type="MSShapeGroup"></path>
            </g>
        </g>
    </g>
</svg>