<svg xmlns="http://www.w3.org/2000/svg" width="34" height="34" viewBox="0 0 34 34"><title>  icon-fb</title><desc>  Created with Sketch.</desc><g fill="none"><g fill="#FFF"><path d="M32.1 0L1.9 0C0.8 0 0 0.8 0 1.9L0 32.1C0 33.2 0.8 34 1.9 34L18.2 34 18.2 20.8 13.7 20.8 13.7 15.7 18.2 15.7 18.2 11.9C18.2 7.5 20.8 5.1 24.8 5.1 26.6 5.1 28.2 5.3 28.7 5.3L28.7 9.9 26 9.9C23.9 9.9 23.5 10.9 23.5 12.4L23.5 15.7 28.5 15.7 27.9 20.8 23.5 20.8 23.5 34 32.1 34C33.2 34 34 33.2 34 32.1L34 1.9C34 0.8 33.2 0 32.1 0"/></g></g></svg>