<svg xmlns="http://www.w3.org/2000/svg" width="14" height="34" viewBox="0 0 14 34"><title>  icon-attach</title><desc>  Created with Sketch.</desc><g fill="none"><g fill="#BEBEBE"><path d="M2.6 0.7C4.1-0.2 6.1-0.2 7.6 0.7 9.1 1.6 10 3.4 10 5.5L9.9 25.4C9.9 26.5 9.6 27.5 9.1 28.2 8.5 28.9 7.8 29.3 6.9 29.3 5.5 29.3 4 28 4 25.4L4 11.4C4 10.9 4.5 10.4 5 10.4 5.6 10.4 6 10.8 6 11.4L6 25.4C6 26.6 6.5 27.2 7 27.2 7.2 27.2 7.4 27.1 7.6 26.9 7.8 26.6 8 26 8 25.4L8 5.5C8 4.1 7.5 3.1 6.6 2.5 5.7 1.9 4.5 1.9 3.5 2.5 2.6 3.1 2.1 4.1 2.1 5.5 2.1 11.4 2 23.3 2 26.3 2 30.2 4.6 31.9 6.9 31.9 9.3 31.9 11.9 30.1 11.9 26.3L12 5.5C12 4.9 12.5 4.4 13 4.4 13.6 4.4 14 4.9 14 5.5L13.9 26.3C13.9 28.7 13.1 30.6 11.8 31.9 10.5 33.3 8.7 34 6.9 34 3.5 34 0 31.4 0 26.3 0 23.3 0.1 11.4 0.1 5.5 0.1 3.4 1 1.6 2.6 0.7"/></g></g></svg>