<svg xmlns="http://www.w3.org/2000/svg" width="26" height="30" viewBox="0 0 26 30"><title>  icon-android</title><desc>  Created with Sketch.</desc><g fill="none"><g fill="#CCC"><path d="M17.4 2.2L18.8 0.2 18.7 0.1 18.5 0 17.1 2.1C16.1 1.7 14.9 1.4 13.5 1.4 12 1.4 10.9 1.7 9.9 2L8.5 0 8.3 0.1 8.2 0.2 9.5 2.2C5.5 3.9 5.4 8.3 5.4 8.3L21.6 8.3C21.6 8.3 21.4 4 17.4 2.2L17.4 2.2ZM9.9 5.7C9.4 5.7 9 5.3 9 4.8 9 4.2 9.4 3.8 9.9 3.8 10.5 3.8 10.9 4.2 10.9 4.8 10.9 5.3 10.5 5.7 9.9 5.7L9.9 5.7ZM17 5.7C16.5 5.7 16.1 5.3 16.1 4.8 16.1 4.2 16.5 3.8 17 3.8 17.6 3.8 18 4.2 18 4.8 18 5.3 17.6 5.7 17 5.7L17 5.7ZM5.3 15.9L5.4 15.9 5.4 23C5.4 23.5 5.8 23.9 6.3 23.9L8.4 23.9 8.4 28.3C8.4 29.2 9.2 30 10.1 30 11.1 30 11.9 29.2 11.9 28.3L11.9 23.9 15.1 23.9 15.1 28.3C15.1 29.2 15.9 30 16.8 30 17.8 30 18.6 29.2 18.6 28.3L18.6 23.9 20.7 23.9C21.2 23.9 21.6 23.5 21.6 23L21.6 15.9 21.7 15.9 21.7 9.3 5.3 9.3 5.3 15.9 5.3 15.9ZM24.3 8.7C23.3 8.7 22.5 9.5 22.5 10.4L22.5 18.2C22.5 19.2 23.3 19.9 24.3 19.9 25.2 19.9 26 19.2 26 18.2L26 10.4C26 9.5 25.2 8.7 24.3 8.7L24.3 8.7ZM2.7 8.7C1.8 8.7 1 9.5 1 10.4L1 18.2C1 19.2 1.8 19.9 2.7 19.9 3.7 19.9 4.5 19.2 4.5 18.2L4.5 10.4C4.5 9.5 3.7 8.7 2.7 8.7L2.7 8.7Z"/></g></g></svg>