<?xml version="1.0" encoding="UTF-8" standalone="no"?>
<svg width="15px" height="15px" viewBox="0 0 15 15" version="1.1" xmlns="http://www.w3.org/2000/svg" xmlns:xlink="http://www.w3.org/1999/xlink" xmlns:sketch="http://www.bohemiancoding.com/sketch/ns">
    <!-- Generator: Sketch 3.2.2 (9983) - http://www.bohemiancoding.com/sketch -->
    <title>icon-pencil</title>
    <desc>Created with Sketch.</desc>
    <defs></defs>
    <g id="Page-1" stroke="none" stroke-width="1" fill="none" fill-rule="evenodd" sketch:type="MSPage">
        <g id="-icons" sketch:type="MSArtboardGroup" transform="translate(-588.000000, -453.000000)" fill="#BEBEBE">
            <g id="icon-pencil" sketch:type="MSLayerGroup" transform="translate(588.000000, 453.000000)">
                <path d="M13.388,1.839 C12.094,0.544 11.122,0.738 11.122,0.738 L1.407,10.453 L0.501,14.728 L4.775,13.821 L14.49,4.106 C14.49,4.106 14.684,3.135 13.388,1.839 L13.388,1.839 Z M4.52,13.307 L3.063,13.621 C2.922,13.357 2.753,13.095 2.443,12.785 C2.133,12.475 1.87,12.306 1.607,12.165 L1.921,10.708 L2.342,10.287 C2.342,10.287 3.135,10.302 4.03,11.198 C4.925,12.093 4.942,12.886 4.942,12.886 L4.52,13.307 L4.52,13.307 Z" id="Fill-43" sketch:type="MSShapeGroup"></path>
            </g>
        </g>
    </g>
</svg>