<svg xmlns="http://www.w3.org/2000/svg" width="19" height="19" viewBox="0 0 19 19"><title>  icon-request_active</title><desc>  Created with Sketch.</desc><g fill="none"><g fill="#1DC250"><path d="M7.9 14.2C7.9 11.5 9.6 9.1 12 8.2 12.5 7.4 12.8 6.5 12.8 5.4 12.8 2.7 10.6 0.5 7.9 0.5 5.1 0.5 2.9 2.7 2.9 5.4 2.9 7.1 3.8 8.6 5 9.4 2.7 10.5 0.9 12.8 0.1 15.7L8 15.7C7.9 15.2 7.9 14.7 7.9 14.2"/><path d="M14.4 9.7C11.9 9.7 9.9 11.7 9.9 14.2 9.9 16.7 11.9 18.7 14.4 18.7 16.8 18.7 18.9 16.7 18.9 14.2 18.9 11.7 16.8 9.7 14.4 9.7L14.4 9.7ZM16.9 14.7L14.9 14.7 14.9 16.7 13.9 16.7 13.9 14.7 11.9 14.7 11.9 13.7 13.9 13.7 13.9 11.7 14.9 11.7 14.9 13.7 16.9 13.7 16.9 14.7 16.9 14.7Z"/></g></g></svg>