<svg xmlns="http://www.w3.org/2000/svg" width="27" height="32" viewBox="0 0 27 32"><style>.a{fill:#FFABAA;}</style><title>  icon-invite</title><desc>  Created with Sketch.</desc><g fill="none"><path d="M21.4 19.5C20.5 19.5 19.6 19.4 18.8 19.1 17.2 19.7 15.4 20 13.6 20 11.7 20 9.8 19.7 8.2 19 7.2 19.3 6.2 19.5 5.2 19.5 4.4 19.5 3.8 19.4 3.1 19.3L6.1 29.9C11 31.9 16 31.8 21.2 29.9L24.2 19.1C23.4 19.3 22.4 19.5 21.4 19.5" fill="#FFF"/><path d="M17 2.6C17 4 15.8 5.2 14.4 5.2 13 5.2 11.8 4 11.8 2.6 11.8 1.2 13 0 14.4 0 15.8 0 17 1.2 17 2.6" class="a"/><path d="M23.1 10.1C22.8 7.9 20.9 6 18.3 5 17.5 6.3 16 7.1 14.4 7.1 12.6 7.1 11 6.1 10.3 4.5 7.1 5.4 4.7 7.4 4.2 9.9 1.8 10.3 0 11.8 0 13.5 0 15.6 2.3 17.2 5.2 17.2 6.3 17.2 7.3 17 8.2 16.5 9.7 17.3 11.6 17.7 13.6 17.7 15.5 17.7 17.3 17.4 18.7 16.7 19.5 17 20.4 17.2 21.4 17.2 24.2 17.2 26.5 15.6 26.5 13.5 26.5 12 25.1 10.6 23.1 10.1" class="a"/></g></svg>