<svg xmlns="http://www.w3.org/2000/svg" width="22" height="28" viewBox="0 0 22 28"><title>  icon-ios</title><desc>  Created with Sketch.</desc><g fill="none"><g fill="#DDD"><path d="M15 4.5C16.8 2.3 16.4 0 16.4 0 16.4 0 14 0 12.2 2.4 10.6 4.6 11 6.4 11 6.4 11 6.4 13.1 6.8 15 4.5L15 4.5ZM18.4 14.8C18.4 11.1 21.3 9.5 21.3 9.5 21.3 9.5 19.8 6.7 16 6.7 13.8 6.7 12.1 8 11.2 8 10.1 8 8.5 6.8 6.5 6.8 3.4 6.8 0 9.7 0 15.3 0 21 4 28 7.1 28 8.2 28 9.9 26.9 11.6 26.9 13.2 26.9 14.4 28 16 28 19.5 28 22 20.5 22 20.5 22 20.5 18.4 19.1 18.4 14.8L18.4 14.8Z"/></g></g></svg>