<?xml version="1.0" encoding="UTF-8" standalone="no"?>
<svg width="34px" height="34px" viewBox="0 0 34 34" version="1.1" xmlns="http://www.w3.org/2000/svg" xmlns:xlink="http://www.w3.org/1999/xlink" xmlns:sketch="http://www.bohemiancoding.com/sketch/ns">
    <!-- Generator: Sketch 3.2.2 (9983) - http://www.bohemiancoding.com/sketch -->
    <title>icon-fb</title>
    <desc>Created with Sketch.</desc>
    <defs></defs>
    <g id="Page-1" stroke="none" stroke-width="1" fill="none" fill-rule="evenodd" sketch:type="MSPage">
        <g id="-icons" sketch:type="MSArtboardGroup" transform="translate(-846.000000, -452.000000)" fill="#FFFFFF">
            <g id="icon-fb" sketch:type="MSLayerGroup" transform="translate(846.000000, 452.000000)">
                <path d="M32.123,0 L1.876,0 C0.84,0 0,0.84 0,1.877 L0,32.124 C0,33.16 0.84,34 1.876,34 L18.16,34 L18.16,20.834 L13.729,20.834 L13.729,15.702 L18.16,15.702 L18.16,11.918 C18.16,7.527 20.842,5.135 24.76,5.135 C26.636,5.135 28.249,5.275 28.719,5.337 L28.719,9.927 L26.002,9.928 C23.872,9.928 23.459,10.941 23.459,12.426 L23.459,15.702 L28.541,15.702 L27.879,20.834 L23.459,20.834 L23.459,34 L32.123,34 C33.159,34 34,33.16 34,32.124 L34,1.877 C34,0.84 33.159,0 32.123,0" id="Fill-1" sketch:type="MSShapeGroup"></path>
            </g>
        </g>
    </g>
</svg>