<?xml version="1.0" encoding="UTF-8" standalone="no"?>
<svg width="17px" height="20px" viewBox="0 0 17 20" version="1.1" xmlns="http://www.w3.org/2000/svg" xmlns:xlink="http://www.w3.org/1999/xlink" xmlns:sketch="http://www.bohemiancoding.com/sketch/ns">
    <!-- Generator: Sketch 3.2.2 (9983) - http://www.bohemiancoding.com/sketch -->
    <title>icon-delete</title>
    <desc>Created with Sketch.</desc>
    <defs></defs>
    <g id="Page-1" stroke="none" stroke-width="1" fill="none" fill-rule="evenodd" sketch:type="MSPage">
        <g id="-icons" sketch:type="MSArtboardGroup" transform="translate(-973.000000, -454.000000)" fill="#C6C6C6">
            <g id="icon-delete" sketch:type="MSLayerGroup" transform="translate(973.000000, 454.000000)">
                <path d="M15,15.974 C15,16.889 14.778,18.029 14.081,18.728 C13.382,19.426 12.595,20 11.68,20 L4.528,20 C3.613,20 3.221,19.426 2.522,18.728 C1.825,18.029 2,16.889 2,15.974 L2,7 L15,7 L15,15.974" id="Fill-7" sketch:type="MSShapeGroup"></path>
                <path d="M0,4 L17,4 L17,6 L0,6 L0,4 Z" id="Fill-8" sketch:type="MSShapeGroup"></path>
                <path d="M5.79,0 C5.416,0 4.878,0.115 4.592,0.464 C4.307,0.813 4,1.212 4,1.67 L4,4 L6,4 L6,2 L11,2 L11,4 L13,4 L13,1.67 C13,1.212 12.526,0.813 12.24,0.464 C11.954,0.115 11.249,0 10.874,0 L5.79,0" id="Fill-9" sketch:type="MSShapeGroup"></path>
            </g>
        </g>
    </g>
</svg>