<svg xmlns="http://www.w3.org/2000/svg" width="25" height="14" viewBox="0 0 25 14"><title>  icon-video-ended</title><desc>  Created with Sketch.</desc><g fill="none"><g fill="#DBDBDB"><path d="M25 12.5L18 9.6 18 5.2 25 2.2 25 12.5"/><path d="M13.8 0L3.2 0C1.4 0 0 1.4 0 3.2L0 10.8C0 12.6 1.4 14 3.2 14L13.8 14C15.6 14 17 12.6 17 10.8L17 3.2C17 1.4 15.6 0 13.8 0L13.8 0ZM11.7 11.5L8.7 8.5 5.7 11.5 4.4 10.2 7.4 7.2 4.4 4.2 5.7 2.9 8.7 5.9 11.7 2.9 13 4.2 10 7.2 13 10.2 11.7 11.5 11.7 11.5Z"/></g></g></svg>