<?xml version="1.0" encoding="UTF-8" standalone="no"?>
<svg width="32px" height="33px" viewBox="0 0 32 33" version="1.1" xmlns="http://www.w3.org/2000/svg" xmlns:xlink="http://www.w3.org/1999/xlink" xmlns:sketch="http://www.bohemiancoding.com/sketch/ns">
    <!-- Generator: Sketch 3.2.2 (9983) - http://www.bohemiancoding.com/sketch -->
    <title>icon-smile_active</title>
    <desc>Created with Sketch.</desc>
    <defs></defs>
    <g id="Page-1" stroke="none" stroke-width="1" fill="none" fill-rule="evenodd" sketch:type="MSPage">
        <g id="-icons" sketch:type="MSArtboardGroup" transform="translate(-375.000000, -450.000000)" fill="#0D70B3">
            <g id="icon-smile_active" sketch:type="MSLayerGroup" transform="translate(375.000000, 450.000000)">
                <path d="M16.376,0.917 C7.747,0.917 0.751,7.913 0.751,16.542 C0.751,25.17 7.747,32.166 16.376,32.166 C25.005,32.166 32,25.17 32,16.542 C32,7.913 25.005,0.917 16.376,0.917 L16.376,0.917 Z M22.719,8.598 C23.891,8.598 24.841,9.548 24.841,10.72 C24.841,11.892 23.891,12.842 22.719,12.842 C21.547,12.842 20.597,11.892 20.597,10.72 C20.597,9.548 21.547,8.598 22.719,8.598 L22.719,8.598 Z M9.812,8.598 C10.984,8.598 11.934,9.548 11.934,10.72 C11.934,11.892 10.984,12.842 9.812,12.842 C8.641,12.842 7.691,11.892 7.691,10.72 C7.691,9.548 8.641,8.598 9.812,8.598 L9.812,8.598 Z M16.376,26.565 C11.511,26.565 7.382,23.46 5.833,19.127 C8.359,21.573 12.142,23.131 16.376,23.131 C20.609,23.131 24.392,21.573 26.918,19.127 C25.369,23.46 21.241,26.565 16.376,26.565 L16.376,26.565 Z" id="Fill-17" sketch:type="MSShapeGroup"></path>
            </g>
        </g>
    </g>
</svg>