<svg xmlns="http://www.w3.org/2000/svg" width="19" height="19" viewBox="0 0 19 19"><title>  icon-fb_header</title><desc>  Created with Sketch.</desc><g fill="none"><g fill="#959595"><path d="M18 0L1 0C0.5 0 0 0.5 0 1L0 18C0 18.5 0.5 19 1 19L10.1 19 10.1 11.6 7.7 11.6 7.7 8.8 10.1 8.8 10.1 6.7C10.1 4.2 11.6 2.9 13.8 2.9 14.9 2.9 15.8 2.9 16 3L16 5.5 14.5 5.5C13.3 5.5 13.1 6.1 13.1 6.9L13.1 8.8 15.9 8.8 15.6 11.6 13.1 11.6 13.1 19 18 19C18.5 19 19 18.5 19 18L19 1C19 0.5 18.5 0 18 0"/></g></g></svg>