<?xml version="1.0" encoding="UTF-8" standalone="no"?>
<svg width="590px" height="56px" viewBox="0 0 590 56" version="1.1" xmlns="http://www.w3.org/2000/svg" xmlns:xlink="http://www.w3.org/1999/xlink" xmlns:sketch="http://www.bohemiancoding.com/sketch/ns">
    <!-- Generator: Sketch 3.2.2 (9983) - http://www.bohemiancoding.com/sketch -->
    <title>logo-qmunicate-text</title>
    <desc>Created with Sketch.</desc>
    <defs></defs>
    <g id="Page-1" stroke="none" stroke-width="1" fill="none" fill-rule="evenodd" sketch:type="MSPage">
        <g id="-icons" sketch:type="MSArtboardGroup" transform="translate(-401.000000, -1071.000000)" fill="#999999">
            <g id="logo-qmunicate-text" sketch:type="MSLayerGroup" transform="translate(401.000000, 1071.000000)">
                <path d="M44.573,48.894 C40.113,52.674 34.291,54.942 27.486,54.942 C11.458,54.942 0.948,42.165 0.948,27.572 C0.948,13.131 11.609,0.202 27.637,0.202 C43.666,0.202 54.176,12.98 54.176,27.572 C54.176,34.604 51.681,41.257 47.22,46.247 L54.78,52.598 L51.983,55.623 L44.573,48.894 L44.573,48.894 Z M41.7,46.398 L31.418,37.628 L34.215,34.528 L44.347,43.752 C47.976,39.518 50.093,33.848 50.093,27.572 C50.093,14.492 40.566,3.756 27.486,3.756 C14.406,3.756 5.031,14.341 5.031,27.572 C5.031,40.652 14.557,51.388 27.637,51.388 C33.157,51.388 37.996,49.498 41.7,46.398 L41.7,46.398 Z" id="Fill-1" sketch:type="MSShapeGroup"></path>
                <path d="M77.069,29.462 L97.332,29.462 L97.332,33.696 L77.069,33.696 L77.069,29.462 Z" id="Fill-2" sketch:type="MSShapeGroup"></path>
                <path d="M121.672,1.109 L125.377,1.109 L146.623,32.411 L167.868,1.109 L171.573,1.109 L171.573,54.035 L167.642,54.035 L167.642,8.065 L146.698,38.535 L146.396,38.535 L125.453,8.065 L125.453,54.035 L121.672,54.035 L121.672,1.109" id="Fill-3" sketch:type="MSShapeGroup"></path>
                <path d="M197.166,32.033 L197.166,1.109 L201.097,1.109 L201.097,31.655 C201.097,44.13 207.826,51.313 219.016,51.313 C229.752,51.313 236.633,44.81 236.633,32.033 L236.633,1.109 L240.565,1.109 L240.565,31.579 C240.565,46.776 231.718,54.866 218.865,54.866 C206.163,54.866 197.166,46.852 197.166,32.033" id="Fill-4" sketch:type="MSShapeGroup"></path>
                <path d="M266.112,1.109 L269.817,1.109 L306.335,47.154 L306.335,1.109 L310.115,1.109 L310.115,54.035 L307.167,54.035 L269.893,7.007 L269.893,54.035 L266.112,54.035 L266.112,1.109" id="Fill-5" sketch:type="MSShapeGroup"></path>
                <path d="M336.458,1.109 L340.39,1.109 L340.39,54.034 L336.458,54.034 L336.458,1.109 Z" id="Fill-6" sketch:type="MSShapeGroup"></path>
                <path d="M364.035,27.572 C364.035,12.602 375.225,0.202 390.497,0.202 C399.948,0.202 405.393,3.907 410.836,8.897 L408.266,11.544 C403.653,7.083 398.36,3.756 390.422,3.756 C377.72,3.756 368.118,14.114 368.118,27.572 C368.118,40.955 377.871,51.388 390.497,51.388 C398.134,51.388 403.351,48.44 408.719,43.148 L411.365,45.718 C405.771,51.237 399.722,54.942 390.347,54.942 C375.225,54.942 364.035,42.92 364.035,27.572" id="Fill-7" sketch:type="MSShapeGroup"></path>
                <path d="M452.685,0.731 L456.465,0.731 L481.113,54.035 L476.804,54.035 L470.074,39.216 L438.849,39.216 L432.119,54.035 L428.037,54.035 L452.685,0.731 L452.685,0.731 Z M468.411,35.662 L454.499,5.041 L440.512,35.662 L468.411,35.662 L468.411,35.662 Z" id="Fill-8" sketch:type="MSShapeGroup"></path>
                <path d="M508.258,4.739 L489.81,4.739 L489.81,1.109 L530.638,1.109 L530.638,4.739 L512.189,4.739 L512.189,54.035 L508.258,54.035 L508.258,4.739" id="Fill-9" sketch:type="MSShapeGroup"></path>
                <path d="M551.566,1.109 L589.219,1.109 L589.219,4.739 L555.498,4.739 L555.498,25.531 L585.816,25.531 L585.816,29.16 L555.498,29.16 L555.498,50.405 L589.597,50.405 L589.597,54.035 L551.566,54.035 L551.566,1.109" id="Fill-10" sketch:type="MSShapeGroup"></path>
            </g>
        </g>
    </g>
</svg>