<svg xmlns="http://www.w3.org/2000/svg" width="226" height="49" viewBox="0 0 226 49"><title>  logo-qmunicate</title><desc>  Created with Sketch.</desc><g fill="none"><path d="M47.7 7.7C46.7 4.9 44.4 2.6 41.6 1.6 39 0.8 36.6 0.8 31.8 0.8L17.3 0.8C12.4 0.8 10 0.8 7.4 1.6 4.6 2.6 2.4 4.9 1.3 7.7 0.5 10.3 0.5 12.7 0.5 17.5L0.5 32.1C0.5 36.9 0.5 39.3 1.3 41.9 2.4 44.7 4.6 46.9 7.4 48 10 48.8 12.4 48.8 17.3 48.8L31.8 48.8C36.6 48.8 39 48.8 41.6 48 44.4 46.9 46.7 44.7 47.7 41.9 48.5 39.3 48.5 36.9 48.5 32.1L48.5 17.5C48.5 12.7 48.5 10.3 47.7 7.7ZM37.2 43.8L27.9 37.1 15.7 37.1C13.6 37.1 11.8 35.3 11.8 33.1L11.8 15.7C11.8 13.5 13.6 11.7 15.7 11.7L33.2 11.7C35.4 11.7 37.2 13.5 37.2 15.7L37.2 43.8Z" fill="#00BF28"/><path d="M77.3 30.4C76.1 31.4 74.6 31.9 72.9 31.9 68.6 31.9 65.7 28.6 65.7 24.7 65.7 20.8 68.6 17.5 72.9 17.5 77.2 17.5 80 20.8 80 24.7 80 26.5 79.4 28.1 78.3 29.4L80.2 30.9 79.1 32.1 77.3 30.4 77.3 30.4ZM76.1 29.4L73.5 27.2 74.6 26 77.2 28.4C77.9 27.4 78.4 26.1 78.4 24.7 78.4 21.5 76.1 18.9 72.9 18.9 69.7 18.9 67.4 21.5 67.4 24.7 67.4 27.9 69.7 30.5 72.9 30.5 74.1 30.5 75.3 30.1 76.1 29.4ZM86 24L91.6 24 91.6 25.6 86 25.6 86 24ZM98 17.8L99.6 17.8 104.7 25.4 109.8 17.8 111.4 17.8 111.4 31.8 109.9 31.8 109.9 20.5 104.8 28 104.7 28 99.6 20.5 99.6 31.8 98 31.8 98 17.8ZM118.4 25.8L118.4 17.7 120 17.7 120 25.7C120 28.7 121.6 30.4 124.3 30.4 126.8 30.4 128.5 28.9 128.5 25.8L128.5 17.7 130.1 17.7 130.1 25.7C130.1 29.8 127.7 31.9 124.2 31.9 120.8 31.9 118.4 29.8 118.4 25.8ZM137 17.8L138.5 17.8 147.3 29 147.3 17.8 148.8 17.8 148.8 31.8 147.6 31.8 138.5 20.3 138.5 31.8 137 31.8 137 17.8ZM156 17.8L157.6 17.8 157.6 31.8 156 31.8 156 17.8ZM164.1 24.8C164.1 20.8 167 17.6 171.1 17.6 173.7 17.6 175.2 18.5 176.6 19.8L175.5 20.9C174.3 19.8 173 19 171.1 19 168 19 165.7 21.5 165.7 24.8 165.7 28 168 30.6 171.1 30.6 173 30.6 174.3 29.8 175.6 28.6L176.7 29.7C175.2 31.1 173.6 32 171.1 32 167 32 164.1 28.9 164.1 24.8ZM187.7 17.7L189.2 17.7 195.6 31.8 193.9 31.8 192.2 28.1 184.6 28.1 183 31.8 181.3 31.8 187.7 17.7ZM191.6 26.7L188.4 19.6 185.2 26.7 191.6 26.7ZM203.1 19.3L198.4 19.3 198.4 17.8 209.4 17.8 209.4 19.3 204.7 19.3 204.7 31.8 203.1 31.8 203.1 19.3ZM215.1 17.8L225.2 17.8 225.2 19.2 216.7 19.2 216.7 24 224.3 24 224.3 25.5 216.7 25.5 216.7 30.4 225.3 30.4 225.3 31.8 215.1 31.8 215.1 17.8Z" fill="#666"/></g></svg>