<svg xmlns="http://www.w3.org/2000/svg" width="129" height="26" viewBox="0 0 129 26"><title>  logo-quickblox-gray</title><desc>  Created with Sketch.</desc><g fill="none"><g fill="#C6C6C6"><path d="M37.1 8.1L37.1 1.9 38.6 1.9C39.8 1.9 41.2 2.2 41.2 3.7 41.2 5.1 39.8 5.4 38.6 5.4L37.6 5.4 37.6 8.1 37.1 8.1 37.1 8.1ZM37.6 4.9L39 4.9C39.8 4.9 40.6 4.6 40.6 3.7 40.6 2.7 39.8 2.4 39 2.4L37.6 2.4 37.6 4.9 37.6 4.9Z"/><path d="M47.6 8.3C45.9 8.3 44.9 7 44.9 5 44.9 3.1 45.9 1.8 47.6 1.8 49.4 1.8 50.4 3.1 50.4 5 50.4 7 49.4 8.3 47.6 8.3L47.6 8.3ZM47.6 7.7C49.2 7.7 49.8 6.4 49.8 5 49.8 3.7 49.2 2.3 47.6 2.3 46.1 2.3 45.5 3.7 45.5 5 45.5 6.4 46.1 7.7 47.6 7.7L47.6 7.7Z"/><path d="M56.2 8.1L55.4 8.1 53.8 1.9 54.3 1.9 55.8 7.6 55.8 7.6 57.6 1.9 58.3 1.9 60.2 7.6 60.2 7.6 61.7 1.9 62.2 1.9 60.6 8.1 59.8 8.1 58 2.5 57.9 2.5 56.2 8.1"/><path d="M66 8.1L66 1.9 69.7 1.9 69.7 2.4 66.5 2.4 66.5 4.7 69.5 4.7 69.5 5.2 66.5 5.2 66.5 7.6 69.8 7.6 69.8 8.1 66 8.1"/><path d="M74.4 8.1L73.8 8.1 73.8 1.9 75.8 1.9C76.4 1.9 76.8 1.9 77.3 2.2 77.7 2.5 78 2.9 78 3.5 78 4.2 77.5 4.7 76.8 4.9L76.8 4.9C77.5 5 77.7 5.6 77.8 6.3 77.9 7.3 77.9 7.7 78.1 8.1L77.5 8.1C77.3 7.7 77.3 7.3 77.3 6.8 77.1 5.4 77 5.2 75.9 5.2L74.4 5.2 74.4 8.1 74.4 8.1ZM75.6 4.6C76.4 4.6 77.3 4.6 77.3 3.5 77.3 2.3 76.2 2.4 75.6 2.4L74.4 2.4 74.4 4.6 75.6 4.6 75.6 4.6Z"/><path d="M82.3 8.1L82.3 1.9 85.9 1.9 85.9 2.4 82.8 2.4 82.8 4.7 85.8 4.7 85.8 5.2 82.8 5.2 82.8 7.6 86.1 7.6 86.1 8.1 82.3 8.1"/><path d="M91.7 1.9C93.8 1.9 94.9 3 94.9 5 94.9 7.1 93.8 8.1 91.7 8.1L90 8.1 90 1.9 91.7 1.9 91.7 1.9ZM91.9 7.6C93.6 7.6 94.3 6.6 94.3 5 94.3 3.2 93.2 2.4 91.5 2.4L90.6 2.4 90.6 7.6 91.9 7.6 91.9 7.6Z"/><path d="M37.1 21.4L37.1 15.2 39.3 15.2C40.2 15.2 41 15.8 41 16.8 41 17.4 40.5 18 39.9 18.2L39.9 18.2C40.7 18.3 41.3 18.9 41.3 19.8 41.3 20.6 40.8 21.4 39.4 21.4L37.1 21.4 37.1 21.4ZM39 17.9C39.7 17.9 40.4 17.7 40.4 16.8 40.4 15.9 39.7 15.7 39 15.7L37.6 15.7 37.6 17.9 39 17.9 39 17.9ZM37.6 20.9L39 20.9C40.1 20.9 40.7 20.6 40.7 19.7 40.7 18.6 39.8 18.5 38.7 18.5L37.6 18.5 37.6 20.9 37.6 20.9Z"/><path d="M46.8 18.7L44.5 15.2 45.3 15.2 47.2 18.2 49.1 15.2 49.7 15.2 47.4 18.7 47.4 21.4 46.8 21.4 46.8 18.7"/><path d="M62.4 21.4C62.1 21.4 61.6 21.3 61.3 21.4 61.1 21.5 60.8 21.5 60.6 21.5 58.8 21.5 57.9 20.2 57.9 18.3 57.9 16.4 58.8 15.1 60.6 15.1 62.4 15.1 63.4 16.4 63.4 18.3 63.4 19.3 63 20.3 62.3 20.9L62.3 21C62.7 20.9 63.2 20.9 63.6 20.9L63.6 21.4 62.4 21.4 62.4 21.4ZM60.6 21C62.2 21 62.8 19.7 62.8 18.3 62.8 16.9 62.2 15.6 60.6 15.6 59.1 15.6 58.5 16.9 58.5 18.3 58.5 19.7 59.1 21 60.6 21L60.6 21Z"/><path d="M68.1 15.2L68.1 19.2C68.1 20.3 68.8 21 69.8 21 70.8 21 71.5 20.3 71.5 19.2L71.5 15.2 72.1 15.2 72.1 19.2C72.1 20.6 71.3 21.5 69.8 21.5 68.3 21.5 67.5 20.6 67.5 19.2L67.5 15.2 68.1 15.2"/><path d="M76.5 15.2L77.1 15.2 77.1 21.4 76.5 21.4 76.5 15.2Z"/><path d="M85.4 16.7C85.3 15.9 84.6 15.6 83.9 15.6 82.3 15.6 81.8 17 81.8 18.3 81.8 19.6 82.3 21 83.9 21 84.6 21 85.3 20.7 85.4 19.9L86 19.9C85.9 21 84.9 21.5 83.9 21.5 82 21.5 81.2 20 81.2 18.3 81.2 16.6 82 15.1 83.9 15.1 84.9 15.1 85.9 15.5 86 16.7L85.4 16.7"/><path d="M90 21.4L90 15.2 90.6 15.2 90.6 17.9 93.4 15.2 94.1 15.2 91.2 18 94.3 21.4 93.6 21.4 90.6 18.2 90.6 21.4 90 21.4"/><path d="M98.1 15.2L100.3 15.2C101 15.2 101.5 15.3 101.9 15.7 102.1 15.9 102.3 16.3 102.3 16.8 102.3 17.8 101.5 18.1 101.2 18.2 101.6 18.3 102.5 18.5 102.5 19.7 102.5 20.6 101.9 21 101.7 21.1 101.3 21.4 100.8 21.4 100.3 21.4L98.1 21.4 98.1 15.2 98.1 15.2ZM98.9 17.8L100.1 17.8C100.4 17.8 101.4 17.8 101.4 16.8 101.4 15.9 100.6 15.9 100.1 15.9L98.9 15.9 98.9 17.8 98.9 17.8ZM98.9 20.7L100.4 20.7C101 20.7 101.6 20.4 101.6 19.6 101.6 19 101.2 18.6 100.4 18.6L98.9 18.6 98.9 20.7 98.9 20.7Z"/><path d="M106.5 15.2L107.3 15.2 107.3 20.6 110.2 20.6 110.2 21.4 106.5 21.4 106.5 15.2"/><path d="M114.3 15.9C115 15.2 115.8 15 116.4 15 118.1 15 119.2 16.1 119.2 18.2 119.2 19.9 118.5 21.6 116.3 21.6 114.2 21.6 113.5 20.1 113.5 18.4 113.5 17.6 113.7 16.6 114.3 15.9L114.3 15.9ZM115 20.3C115.3 20.7 115.9 20.8 116.4 20.8 116.9 20.8 117.4 20.7 117.7 20.3 118.2 19.6 118.3 18.7 118.3 18.2 118.3 16.8 117.8 15.8 116.4 15.8 114.8 15.8 114.4 17 114.4 18.3 114.4 19 114.6 19.7 115 20.3L115 20.3Z"/><path d="M123.6 15.2L125.3 17.6 127 15.2 128 15.2 125.8 18.2 128.1 21.4 127 21.4 125.2 18.7 123.3 21.4 122.2 21.4 124.7 18.2 122.5 15.2 123.6 15.2"/><path d="M5.3 0L0.7 0C0.3 0 0 0.3 0 0.7L0 5.2C0 5.6 0.3 5.9 0.7 5.9L5.3 5.9C5.6 5.9 5.9 5.6 5.9 5.2L5.9 0.7C5.9 0.3 5.6 0 5.3 0"/><path d="M13.4 0L8.9 0C8.5 0 8.2 0.3 8.2 0.7L8.2 5.2C8.2 5.6 8.5 5.9 8.9 5.9L13.4 5.9C13.8 5.9 14.1 5.6 14.1 5.2L14.1 0.7C14.1 0.3 13.8 0 13.4 0"/><path d="M21.6 0L17.1 0C16.7 0 16.4 0.3 16.4 0.7L16.4 5.2C16.4 5.6 16.7 5.9 17.1 5.9L21.6 5.9C22 5.9 22.3 5.6 22.3 5.2L22.3 0.7C22.3 0.3 22 0 21.6 0"/><path d="M5.3 8.1L0.7 8.1C0.3 8.1 0 8.4 0 8.8L0 13.4C0 13.8 0.3 14.1 0.7 14.1L5.3 14.1C5.6 14.1 5.9 13.8 5.9 13.4L5.9 8.8C5.9 8.4 5.6 8.1 5.3 8.1"/><path d="M21.6 8.1L17.1 8.1C16.7 8.1 16.4 8.4 16.4 8.8L16.4 13.4C16.4 13.8 16.7 14.1 17.1 14.1L21.6 14.1C22 14.1 22.3 13.8 22.3 13.4L22.3 8.8C22.3 8.4 22 8.1 21.6 8.1"/><path d="M5.3 16.2L0.7 16.2C0.3 16.2 0 16.6 0 16.9L0 21.5C0 21.9 0.3 22.2 0.7 22.2L5.3 22.2C5.6 22.2 5.9 21.9 5.9 21.5L5.9 16.9C5.9 16.6 5.6 16.2 5.3 16.2"/><path d="M13.4 16.2L8.9 16.2C8.5 16.2 8.2 16.6 8.2 16.9L8.2 21.5C8.2 21.9 8.5 22.2 8.9 22.2L13.4 22.2C13.8 22.2 14.1 21.9 14.1 21.5L14.1 16.9C14.1 16.6 13.8 16.2 13.4 16.2"/><path d="M24.3 16.2L17.4 16.2C16.9 16.2 16.4 16.7 16.4 17.3L16.4 24.1C16.4 24.7 16.9 25.1 17.4 25.1L24.3 25.1C24.8 25.1 25.3 24.7 25.3 24.1L25.3 17.3C25.3 16.7 24.8 16.2 24.3 16.2"/></g></g></svg>