<svg xmlns="http://www.w3.org/2000/svg" xmlns:xlink="http://www.w3.org/1999/xlink" xmlns:sketch="http://www.bohemiancoding.com/sketch/ns" width="249px" height="50px" viewBox="0 0 249 50" version="1.1"><style>.style0{fill:	none;fill-rule:	evenodd;}.style1{fill:	#00C113;}.style2{fill:	#FFFFFF;}.style3{fill:	#6B6B6B;}</style><!-- Generator: Sketch 3.0.4 (8054) - http://www.bohemiancoding.com/sketch --><title>QM Icon + Q-MUNICATE</title><desc>Created with Sketch.</desc><defs/><g sketch:type="MSPage" class="style0"><g sketch:type="MSArtboardGroup" transform="translate(-75.000000, -47.000000)"><g sketch:type="MSLayerGroup" transform="translate(75.000000, 47.000000)"><g sketch:type="MSShapeGroup"><rect x="0" y="0" width="49.54" height="50" rx="11" class="style1"/><path d="M29.8109109 38.45 L16.1343936 38.45 C13.3742314 38.45 11.13 36.21 11.13 33.45 L11.1344543 16.11 C11.1344543 13.35 13.37 11.11 16.13 11.11 L33.2225961 11.11 C35.9827582 11.11 38.22 13.35 38.22 16.11 L38.2225354 33.45 C38.2225354 33.54 38.22 33.63 38.22 33.72 L38.215365 45.07 L29.8109109 38.45 Z" class="style2"/></g><path d="M79.7300683 33.79 L80.8986333 32.5 L78.8861048 30.82 C80.0546697 29.42 80.7 27.61 80.7 25.69 C80.7038724 21.43 77.61 17.78 73 17.78 C68.3906606 17.78 65.25 21.47 65.25 25.69 C65.2528474 29.95 68.35 33.6 72.96 33.6 C74.8394077 33.6 76.46 32.98 77.74 31.96 L79.7300683 33.79 Z M73 32 C69.5375854 32 67.03 29.16 67.03 25.69 C67.0273349 22.17 69.49 19.38 72.96 19.38 C76.4191344 19.38 78.93 22.22 78.93 25.69 C78.929385 27.24 78.43 28.62 77.61 29.69 L74.8177677 27.13 L73.6708428 28.42 L76.4840547 30.84 C75.5535308 31.56 74.34 32 73 32 Z M88.0808657 27.66 L94.096811 27.66 L94.096811 25.89 L88.0808657 25.89 L88.0808657 27.66 Z M102.144647 33.33 L103.810934 33.33 L103.810934 20.97 L109.329157 29.14 L109.415718 29.14 L114.933941 20.95 L114.933941 33.33 L116.643508 33.33 L116.643508 18.05 L114.912301 18.05 L109.394078 26.39 L103.875854 18.05 L102.144647 18.05 L102.144647 33.33 Z M131.486333 33.57 C135.273349 33.57 137.81 31.26 137.81 26.8 L137.805239 18.05 L136.095672 18.05 L136.095672 26.93 C136.095672 30.28 134.32 31.98 131.53 31.98 C128.629841 31.98 126.9 30.12 126.9 26.83 L126.898633 18.05 L125.189066 18.05 L125.189066 26.93 C125.189066 31.26 127.74 33.57 131.49 33.57 Z M146.350797 33.33 L148.017084 33.33 L148.017084 20.8 L157.798406 33.33 L159.161731 33.33 L159.161731 18.05 L157.495444 18.05 L157.495444 30.3 L147.952164 18.05 L146.350797 18.05 L146.350797 33.33 Z M168.096811 33.33 L169.806378 33.33 L169.806378 18.05 L168.096811 18.05 L168.096811 33.33 Z M185.666287 33.6 C188.414579 33.6 190.15 32.61 191.73 31 L190.600228 29.8 C189.150342 31.19 187.79 32 185.71 32 C182.376993 32 179.85 29.23 179.85 25.69 C179.845103 22.13 182.36 19.38 185.71 19.38 C187.765376 19.38 189.19 20.25 190.47 21.47 L191.595672 20.25 C190.080866 18.81 188.48 17.78 185.73 17.78 C181.273349 17.78 178.07 21.37 178.07 25.69 C178.070615 30.12 181.29 33.6 185.67 33.6 Z M197.912301 33.33 L199.665148 33.33 L201.461276 29.29 L209.706151 29.29 L211.480638 33.33 L213.320046 33.33 L206.416857 17.94 L204.81549 17.94 L197.912301 33.33 Z M202.132119 27.74 L205.594533 19.95 L209.035308 27.74 L202.132119 27.74 Z M222.861048 33.33 L224.592256 33.33 L224.592256 19.64 L229.677677 19.64 L229.677677 18.05 L217.775627 18.05 L217.775627 19.64 L222.861048 19.64 L222.861048 33.33 Z M237.379272 33.33 L248.437358 33.33 L248.437358 31.76 L239.088839 31.76 L239.088839 26.41 L247.355354 26.41 L247.355354 24.84 L239.088839 24.84 L239.088839 19.62 L248.329158 19.62 L248.329158 18.05 L237.379272 18.05 L237.379272 33.33 Z" sketch:type="MSShapeGroup" class="style3"/></g></g></g></svg>