<?xml version="1.0" encoding="UTF-8" standalone="no"?>
<svg width="161px" height="83px" viewBox="0 0 161 83" version="1.1" xmlns="http://www.w3.org/2000/svg" xmlns:xlink="http://www.w3.org/1999/xlink" xmlns:sketch="http://www.bohemiancoding.com/sketch/ns">
    <!-- Generator: Sketch 3.2.2 (9983) - http://www.bohemiancoding.com/sketch -->
    <title>logo-quickblox</title>
    <desc>Created with Sketch.</desc>
    <defs></defs>
    <g id="Page-1" stroke="none" stroke-width="1" fill="none" fill-rule="evenodd" sketch:type="MSPage">
        <g id="-icons" sketch:type="MSArtboardGroup" transform="translate(-692.000000, -296.000000)">
            <g id="logo-quickblox" sketch:type="MSLayerGroup" transform="translate(692.000000, 296.000000)">
                <path d="M65.969,0.468 L56.684,0.468 C55.913,0.468 55.287,1.093 55.287,1.863 L55.287,11.145 C55.287,11.918 55.913,12.542 56.684,12.542 L65.969,12.542 C66.737,12.542 67.363,11.918 67.363,11.145 L67.363,1.863 C67.363,1.093 66.737,0.468 65.969,0.468" id="Fill-1" fill="#1B6BAF" sketch:type="MSShapeGroup"></path>
                <path d="M82.644,0.468 L73.361,0.468 C72.589,0.468 71.964,1.093 71.964,1.863 L71.964,11.145 C71.964,11.918 72.589,12.542 73.361,12.542 L82.644,12.542 C83.414,12.542 84.039,11.918 84.039,11.145 L84.039,1.863 C84.039,1.093 83.414,0.468 82.644,0.468" id="Fill-2" fill="#1B6BAF" sketch:type="MSShapeGroup"></path>
                <path d="M99.319,0.468 L90.035,0.468 C89.264,0.468 88.639,1.093 88.639,1.863 L88.639,11.145 C88.639,11.918 89.264,12.542 90.035,12.542 L99.319,12.542 C100.09,12.542 100.714,11.918 100.714,11.145 L100.714,1.863 C100.714,1.093 100.09,0.468 99.319,0.468" id="Fill-3" fill="#1B6BAF" sketch:type="MSShapeGroup"></path>
                <path d="M65.969,16.996 L56.684,16.996 C55.913,16.996 55.287,17.621 55.287,18.394 L55.287,27.677 C55.287,28.447 55.913,29.071 56.684,29.071 L65.969,29.071 C66.737,29.071 67.363,28.447 67.363,27.677 L67.363,18.394 C67.363,17.621 66.737,16.996 65.969,16.996" id="Fill-4" fill="#1B6BAF" sketch:type="MSShapeGroup"></path>
                <path d="M99.319,16.996 L90.035,16.996 C89.264,16.996 88.639,17.621 88.639,18.394 L88.639,27.677 C88.639,28.447 89.264,29.071 90.035,29.071 L99.319,29.071 C100.09,29.071 100.714,28.447 100.714,27.677 L100.714,18.394 C100.714,17.621 100.09,16.996 99.319,16.996" id="Fill-5" fill="#1B6BAF" sketch:type="MSShapeGroup"></path>
                <path d="M65.969,33.526 L56.684,33.526 C55.913,33.526 55.287,34.15 55.287,34.921 L55.287,44.204 C55.287,44.977 55.913,45.601 56.684,45.601 L65.969,45.601 C66.737,45.601 67.363,44.977 67.363,44.204 L67.363,34.921 C67.363,34.15 66.737,33.526 65.969,33.526" id="Fill-6" fill="#1B6BAF" sketch:type="MSShapeGroup"></path>
                <path d="M82.644,33.526 L73.361,33.526 C72.589,33.526 71.964,34.15 71.964,34.921 L71.964,44.204 C71.964,44.977 72.589,45.601 73.361,45.601 L82.644,45.601 C83.414,45.601 84.039,44.977 84.039,44.204 L84.039,34.921 C84.039,34.15 83.414,33.526 82.644,33.526" id="Fill-7" fill="#1B6BAF" sketch:type="MSShapeGroup"></path>
                <path d="M104.624,33.527 L90.729,33.527 C89.573,33.527 88.639,34.463 88.639,35.618 L88.639,49.51 C88.639,50.667 89.573,51.6 90.729,51.6 L104.624,51.6 C105.778,51.6 106.713,50.667 106.713,49.51 L106.713,35.618 C106.713,34.463 105.778,33.527 104.624,33.527" id="Fill-8" fill="#06B624" sketch:type="MSShapeGroup"></path>
                <path d="M0.984,81.81 L0.984,70.887 L4.903,70.902 C6.522,70.902 7.944,71.886 7.944,73.626 C7.944,74.836 7.066,75.819 5.916,76.092 L5.916,76.122 C7.4,76.364 8.397,77.332 8.397,78.89 C8.397,80.328 7.52,81.81 5.145,81.81 L0.984,81.81 L0.984,81.81 Z M4.344,75.699 C5.614,75.699 6.884,75.199 6.884,73.717 C6.884,72.128 5.583,71.81 4.297,71.795 L1.968,71.795 L1.968,75.699 L4.344,75.699 L4.344,75.699 Z M1.968,80.902 L4.373,80.902 C6.249,80.933 7.339,80.433 7.339,78.754 C7.339,76.893 5.841,76.606 3.784,76.606 L1.968,76.606 L1.968,80.902 L1.968,80.902 Z" id="Fill-9" fill="#1B6BAF" sketch:type="MSShapeGroup"></path>
                <path d="M18.129,77.09 L14.103,70.887 L15.36,70.887 L18.704,76.167 L22.047,70.887 L23.106,70.887 L19.111,77.06 L19.111,81.81 L18.129,81.81 L18.129,77.09" id="Fill-10" fill="#1B6BAF" sketch:type="MSShapeGroup"></path>
                <path d="M45.438,81.81 C44.969,81.81 44.092,81.659 43.501,81.826 C43.124,81.947 42.7,82.037 42.382,82.037 C39.251,82.037 37.51,79.753 37.51,76.348 C37.51,72.945 39.251,70.66 42.382,70.66 C45.514,70.66 47.254,72.945 47.254,76.348 C47.254,78.119 46.633,79.934 45.256,80.979 L45.287,81.009 C46.044,80.888 46.861,80.933 47.663,80.902 L47.663,81.81 L45.438,81.81 L45.438,81.81 Z M42.382,81.13 C45.105,81.13 46.195,78.739 46.195,76.348 C46.195,73.959 45.105,71.568 42.382,71.568 C39.659,71.568 38.569,73.959 38.569,76.348 C38.569,78.739 39.659,81.13 42.382,81.13 L42.382,81.13 Z" id="Fill-11" fill="#1B6BAF" sketch:type="MSShapeGroup"></path>
                <path d="M55.49,70.887 L55.49,77.953 C55.565,79.934 56.7,81.13 58.499,81.13 C60.3,81.13 61.435,79.934 61.51,77.953 L61.51,70.887 L62.494,70.887 L62.494,77.967 C62.463,80.312 61.146,82.037 58.499,82.037 C55.852,82.037 54.535,80.312 54.506,77.967 L54.506,70.887 L55.49,70.887" id="Fill-12" fill="#1B6BAF" sketch:type="MSShapeGroup"></path>
                <path d="M70.298,70.842 L71.282,70.842 L71.282,81.811 L70.298,81.811 L70.298,70.842 Z" id="Fill-13" fill="#1B6BAF" sketch:type="MSShapeGroup"></path>
                <path d="M85.871,73.444 C85.691,72.112 84.541,71.568 83.3,71.568 C80.501,71.568 79.653,74.11 79.653,76.348 C79.653,78.588 80.501,81.13 83.3,81.13 C84.51,81.13 85.72,80.524 85.993,79.163 L87.052,79.163 C86.735,80.993 85.054,82.037 83.3,82.037 C79.986,82.037 78.596,79.374 78.596,76.348 C78.596,73.354 80.002,70.66 83.3,70.66 C85.085,70.66 86.78,71.477 86.931,73.444 L85.871,73.444" id="Fill-14" fill="#1B6BAF" sketch:type="MSShapeGroup"></path>
                <path d="M94.084,81.81 L94.084,70.887 L95.053,70.887 L95.068,75.699 L99.954,70.887 L101.195,70.887 L96.157,75.819 L101.649,81.81 L100.303,81.81 L95.068,76.106 L95.053,81.81 L94.084,81.81" id="Fill-15" fill="#1B6BAF" sketch:type="MSShapeGroup"></path>
                <path d="M108.189,70.887 L112.093,70.887 C113.424,70.887 114.165,71.023 114.847,71.689 C115.316,72.143 115.618,72.778 115.618,73.64 C115.618,75.441 114.301,75.91 113.772,76.106 C114.407,76.288 115.951,76.742 115.951,78.83 C115.951,80.312 114.998,81.069 114.634,81.311 C113.879,81.81 113.031,81.81 112.169,81.81 L108.189,81.81 L108.189,70.887 L108.189,70.887 Z M109.657,75.501 L111.776,75.501 C112.289,75.501 114.045,75.501 114.045,73.777 C114.045,72.128 112.669,72.128 111.836,72.128 L109.657,72.128 L109.657,75.501 L109.657,75.501 Z M109.657,80.585 L112.244,80.585 C113.439,80.585 114.392,79.949 114.392,78.694 C114.392,77.604 113.637,76.803 112.304,76.803 L109.657,76.803 L109.657,80.585 L109.657,80.585 Z" id="Fill-16" fill="#06B624" sketch:type="MSShapeGroup"></path>
                <path d="M122.983,70.887 L124.48,70.887 L124.48,80.463 L129.563,80.463 L129.563,81.81 L122.983,81.81 L122.983,70.887" id="Fill-17" fill="#06B624" sketch:type="MSShapeGroup"></path>
                <path d="M136.787,72.068 C137.92,70.842 139.419,70.6 140.432,70.6 C143.459,70.6 145.364,72.536 145.364,76.243 C145.364,79.148 144.2,82.068 140.312,82.068 C136.59,82.068 135.38,79.42 135.38,76.425 C135.38,75.184 135.591,73.354 136.787,72.068 L136.787,72.068 Z M137.936,79.783 C138.557,80.555 139.495,80.782 140.357,80.782 C141.249,80.782 142.142,80.54 142.777,79.783 C143.67,78.694 143.761,76.969 143.761,76.227 C143.761,73.747 142.944,71.87 140.448,71.87 C137.678,71.87 136.968,74.094 136.968,76.334 C136.968,77.529 137.181,78.845 137.936,79.783 L137.936,79.783 Z" id="Fill-18" fill="#06B624" sketch:type="MSShapeGroup"></path>
                <path d="M153.088,70.887 L156.038,75.093 L158.989,70.887 L160.819,70.887 L156.93,76.122 L161.016,81.81 L159.109,81.81 L155.857,77.12 L152.528,81.81 L150.697,81.81 L154.934,76.092 L151.151,70.887 L153.088,70.887" id="Fill-19" fill="#06B624" sketch:type="MSShapeGroup"></path>
            </g>
        </g>
    </g>
</svg>