<svg xmlns="http://www.w3.org/2000/svg" width="55" height="55" viewBox="0 0 55 55"><title>  logo-qmunicate-transparent</title><desc>  Created with Sketch.</desc><g opacity="0.2"><path d="M17.5 41.2c-2.5 0-4.5-2-4.5-4.5v-19.8c0-2.5 2-4.5 4.5-4.5h19.8c2.5 0 4.5 2 4.5 4.5v31.9l-10.5-7.6H17.5M35.8 0H19.2c-5.5 0-8.2 0-11.2 0.9 -3.2 1.2-5.7 3.7-6.9 6.9 -0.9 2.9-0.9 5.7-0.9 11.2v16.5c0 5.5 0 8.2 0.9 11.2 1.2 3.2 3.7 5.7 6.9 6.9 2.9 0.9 5.7 0.9 11.2 0.9H35.8c5.5 0 8.2 0 11.2-0.9 3.2-1.2 5.7-3.7 6.9-6.9 0.9-2.9 0.9-5.7 0.9-11.2V19c0-5.5 0-8.2-0.9-11.2 -1.2-3.2-3.7-5.7-6.9-6.9C44 0 41.2 0 35.8 0" fill="#FFF"/></g></svg>