<svg width="36" height="36" viewBox="0 0 36 36" xmlns="http://www.w3.org/2000/svg"><title>A5D62A56-51AA-4C6B-B349-EE0CDAB1D6B2</title><g fill="none" fill-rule="evenodd"><ellipse fill="#778594" cx="18" cy="18" rx="18" ry="18"/><path d="M20.571 10.995c0-1.102.896-1.995 2.004-1.995h1.136c1.106 0 2.003.893 2.003 1.995v14.01A1.998 1.998 0 0 1 23.711 27h-1.136a1.999 1.999 0 0 1-2.004-1.995v-14.01zm-10.285 0c0-1.102.896-1.995 2.003-1.995h1.136c1.107 0 2.004.893 2.004 1.995v14.01A1.998 1.998 0 0 1 13.425 27H12.29a1.999 1.999 0 0 1-2.003-1.995v-14.01z" fill="#F2F4F5"/></g></svg>