<?xml version="1.0" encoding="UTF-8" standalone="no"?>
<svg width="80px" height="80px" viewBox="0 0 80 80" version="1.1" xmlns="http://www.w3.org/2000/svg" xmlns:xlink="http://www.w3.org/1999/xlink">
    <!-- Generator: sketchtool 3.8.3 (29802) - http://www.bohemiancoding.com/sketch -->
    <title>8EF5FA1E-66EF-4230-9421-1FE5DA98C1A9</title>
    <desc>Created with sketchtool.</desc>
    <defs>
        <linearGradient x1="50%" y1="97.2955198%" x2="50%" y2="0%" id="linearGradient-1">
            <stop stop-color="#00BF28" offset="0%"></stop>
            <stop stop-color="#00E12F" offset="100%"></stop>
        </linearGradient>
    </defs>
    <g id="Welcome" stroke="none" stroke-width="1" fill="none" fill-rule="evenodd">
        <g transform="translate(-680.000000, -319.000000)" id="qm_logo" fill="url(#linearGradient-1)">
            <g transform="translate(680.000000, 319.000000)">
                <path d="M27.1999995,0 C18.3333333,0 15.5,-6.22437331e-09 11.5,1.33333333 C6.78666687,3 3,6.78666687 1.33333333,11.5 C0,15.5 0,18.3333333 0,27.1999995 C0,27.1999995 4.9519547e-08,52.799998 0,52.799998 C4.9519547e-08,61.6666667 3.97330903e-08,64.5 1.33333333,68.5 C3.00309245,73.2133331 6.78666687,77 11.5,78.6666667 C15.5,80 18.3333333,80 27.1999995,80 L52.799998,80 C61.6666667,80 64.5,80 68.5,78.6666667 C73.2133331,77 77,73.2133331 78.6666667,68.5 C80,64.5 80,61.6666667 80,52.799998 L80,27.1999995 C80,18.3333333 80,15.5 78.6666667,11.5 C77,6.83333333 73.1599986,3 68.4933319,1.33333333 C64.4933319,3.73527579e-09 61.6666667,1.4071001e-08 52.799998,0 C57.4666646,1.4071001e-08 27.1999995,0 27.1999995,0 Z M60.6666667,70 L45.3333333,60.6666667 L25.3333333,60.6666667 C21.6037389,60.8611343 18.6666667,57.910556 18.6666667,54 L18.6666667,25.3333333 C18.6666667,21.6199068 21.6037389,18.6666667 25.3333333,18.6666667 L54,18.6666667 C57.7322441,18.6666667 60.6666667,21.6199068 60.6666667,25.3333333 L60.6666667,70 Z" id="App-icon"></path>
            </g>
        </g>
    </g>
</svg>