<svg xmlns="http://www.w3.org/2000/svg" width="22" height="22" viewBox="0 0 22 22"><title>  05E9F0B7-9E64-4C7E-B6F9-05AF144C00FD</title><desc>  Created with sketchtool.</desc><g fill="none"><g fill="#959595"><path d="M0 1C0 0.5 0.5 0 1 0L4.1 0C4.7 0 5.2 0.5 5.2 1L5.2 4.2C5.2 4.8 4.7 5.2 4.1 5.2L1 5.2C0.5 5.2 0 4.8 0 4.2L0 1ZM0 7.8C0 7.3 0.5 6.8 1 6.8L4.1 6.8C4.7 6.8 5.2 7.3 5.2 7.8L5.2 11C5.2 11.6 4.7 12 4.1 12L1 12C0.5 12 0 11.6 0 11L0 7.8ZM6.7 1C6.7 0.5 7.2 0 7.8 0L10.9 0C11.5 0 11.9 0.5 11.9 1L11.9 4.2C11.9 4.8 11.5 5.2 10.9 5.2L7.8 5.2C7.2 5.2 6.7 4.8 6.7 4.2L6.7 1ZM13.5 1C13.5 0.5 13.9 0 14.5 0L17.6 0C18.2 0 18.7 0.5 18.7 1L18.7 4.2C18.7 4.8 18.2 5.2 17.6 5.2L14.5 5.2C13.9 5.2 13.5 4.8 13.5 4.2L13.5 1ZM13.5 7.8C13.5 7.3 13.9 6.8 14.5 6.8L17.6 6.8C18.2 6.8 18.7 7.3 18.7 7.8L18.7 11C18.7 11.6 18.2 12 17.6 12L14.5 12C13.9 12 13.5 11.6 13.5 11L13.5 7.8ZM0 14.7C0 14.1 0.5 13.6 1 13.6L4.1 13.6C4.7 13.6 5.2 14.1 5.2 14.7L5.2 17.8C5.2 18.4 4.7 18.9 4.1 18.9L1 18.9C0.5 18.9 0 18.4 0 17.8L0 14.7ZM6.7 14.7C6.7 14.1 7.2 13.6 7.8 13.6L10.9 13.6C11.5 13.6 11.9 14.1 11.9 14.7L11.9 17.8C11.9 18.4 11.5 18.9 10.9 18.9L7.8 18.9C7.2 18.9 6.7 18.4 6.7 17.8L6.7 14.7ZM13.5 14.6C13.5 14.1 13.9 13.6 14.5 13.6L20.7 13.6C21.3 13.6 21.8 14.1 21.8 14.6L21.8 21C21.8 21.5 21.3 22 20.7 22L14.5 22C13.9 22 13.5 21.5 13.5 21L13.5 14.6Z"/></g></g></svg>